<?xml version="1.0" encoding="UTF-8" standalone="no"?>
<!-- Created with Inkscape (http://www.inkscape.org/) -->

<svg
   xmlns:dc="http://purl.org/dc/elements/1.1/"
   xmlns:cc="http://creativecommons.org/ns#"
   xmlns:rdf="http://www.w3.org/1999/02/22-rdf-syntax-ns#"
   xmlns:svg="http://www.w3.org/2000/svg"
   xmlns="http://www.w3.org/2000/svg"
   xmlns:sodipodi="http://sodipodi.sourceforge.net/DTD/sodipodi-0.dtd"
   xmlns:inkscape="http://www.inkscape.org/namespaces/inkscape"
   viewBox="0 0 73.254997 73.253754"
   id="btn-ciano"
   version="1.1"
   inkscape:version="0.48.4 r9939"
   sodipodi:docname="New document 4">
  <defs
     id="defs7819" />
  <sodipodi:namedview
     id="base"
     pagecolor="#ffffff"
     bordercolor="#666666"
     borderopacity="1.0"
     inkscape:pageopacity="0.0"
     inkscape:pageshadow="2"
     inkscape:zoom="0.35"
     inkscape:cx="-219.80107"
     inkscape:cy="102.34116"
     inkscape:document-units="px"
     inkscape:current-layer="layer1"
     showgrid="false"
     fit-margin-top="0"
     fit-margin-left="0"
     fit-margin-right="0"
     fit-margin-bottom="0"
     inkscape:window-width="453"
     inkscape:window-height="386"
     inkscape:window-x="455"
     inkscape:window-y="178"
     inkscape:window-maximized="0" />
  <metadata
     id="metadata7822">
    <rdf:RDF>
      <cc:Work
         rdf:about="">
        <dc:format>image/svg+xml</dc:format>
        <dc:type
           rdf:resource="http://purl.org/dc/dcmitype/StillImage" />
        <dc:title></dc:title>
      </cc:Work>
    </rdf:RDF>
  </metadata>
  <g
     inkscape:label="Layer 1"
     inkscape:groupmode="layer"
     id="layer1"
     transform="translate(-594.80107,-561.44959)">
    <path
       inkscape:connector-curvature="0"
       style="fill:#ffffff;fill-opacity:1;fill-rule:nonzero;stroke:none"
       id="path18042"
       d="m 631.42982,634.70334 c -20.22875,0 -36.62875,-16.39875 -36.62875,-36.62625 0,-20.22875 16.4,-36.6275 36.62875,-36.6275 20.2275,0 36.6275,16.39875 36.62625,36.6275 0,20.2275 -16.39875,36.62625 -36.62625,36.62625" />
    <path
       inkscape:connector-curvature="0"
       style="fill:#29aca0;fill-opacity:1;fill-rule:nonzero;stroke:none"
       id="path18070"
       d="m 659.71107,598.07734 c 0,15.61875 -12.6625,28.28125 -28.2825,28.28125 -15.61875,0 -28.28,-12.6625 -28.28,-28.28125 0,-15.61875 12.66125,-28.28125 28.28,-28.28125 15.62,0 28.2825,12.6625 28.2825,28.28125" />
    <path
       d="m 603.16808,598.07671 c 0,15.61875 12.6625,28.28125 28.28125,28.28125 5.69125,0 10.9875,-1.6875 15.42375,-4.58125 -37.365,-3.86125 -43.705,-23.7 -43.705,-23.7"
       id="path20078"
       style="opacity:0.19999701;fill:#ffffff;fill-opacity:1;fill-rule:nonzero;stroke:none"
       inkscape:connector-curvature="0" />
    <path
       d="m 659.69033,598.07671 c 0,0 -6.34,19.83875 -43.705,23.7 4.4375,2.89375 9.73125,4.58125 15.42375,4.58125 15.61875,0 28.28125,-12.6625 28.28125,-28.28125"
       id="path20090"
       style="opacity:0.19999701;fill:#ffffff;fill-opacity:1;fill-rule:nonzero;stroke:none"
       inkscape:connector-curvature="0" />
  </g>
</svg>
