<?xml version="1.0" encoding="UTF-8" standalone="no"?>
<!-- Created with Inkscape (http://www.inkscape.org/) -->

<svg
   xmlns:dc="http://purl.org/dc/elements/1.1/"
   xmlns:cc="http://creativecommons.org/ns#"
   xmlns:rdf="http://www.w3.org/1999/02/22-rdf-syntax-ns#"
   xmlns:svg="http://www.w3.org/2000/svg"
   xmlns="http://www.w3.org/2000/svg"
   xmlns:sodipodi="http://sodipodi.sourceforge.net/DTD/sodipodi-0.dtd"
   xmlns:inkscape="http://www.inkscape.org/namespaces/inkscape"
   viewBox="0 0 61.143749 68.58625"
   id="btn-phone"
   version="1.1"
   inkscape:version="0.48.4 r9939"
   sodipodi:docname="New document 2">
  <defs
     id="defs3958">
    <clipPath
       id="clipPath6962">
      <path
         inkscape:connector-curvature="0"
         d="m 189.497,431 -10.864,0 c -0.547,0 -1.633,0.193 -1.633,-0.438 l 0,0 0,-6.696 c -10,-2.68 -17.686,-12.175 -17.686,-23.478 l 0,0 c 0,-13.379 11.108,-24.229 24.49,-24.229 l 0,0 c 13.38,0 24.425,10.85 24.425,24.229 l 0,0 c 0,11.017 -7.229,20.312 -17.229,23.256 l 0,0 0,6.918 c 0,0.391 -0.369,0.466 -0.78,0.466 l 0,0 c -0.25,0 -0.516,-0.028 -0.723,-0.028"
         id="path6964" />
    </clipPath>
    <linearGradient
       x1="0"
       y1="0"
       x2="1"
       y2="0"
       id="linearGradient6970"
       gradientUnits="userSpaceOnUse"
       gradientTransform="matrix(-2.4e-6,-54.869629,-54.869629,2.4e-6,183.77148,431.02783)"
       spreadMethod="pad">
      <stop
         id="stop6972"
         style="stop-color:#fafaf9;stop-opacity:1"
         offset="0" />
      <stop
         id="stop6974"
         style="stop-color:#f6f6f6;stop-opacity:1"
         offset="0.42857099" />
      <stop
         id="stop6976"
         style="stop-color:#f6f6f6;stop-opacity:1"
         offset="0.42857099" />
      <stop
         id="stop6978"
         style="stop-color:#cacfd0;stop-opacity:1"
         offset="1" />
    </linearGradient>
    <clipPath
       id="clipPath6986">
      <path
         inkscape:connector-curvature="0"
         d="m 164.544,400.39 c 0,-10.777 8.741,-19.516 19.519,-19.516 l 0,0 c 10.776,0 19.519,8.739 19.519,19.516 l 0,0 c 0,10.779 -8.743,19.519 -19.519,19.519 l 0,0 c -10.778,0 -19.519,-8.74 -19.519,-19.519"
         id="path6988" />
    </clipPath>
    <linearGradient
       x1="0"
       y1="0"
       x2="1"
       y2="0"
       id="linearGradient6994"
       gradientUnits="userSpaceOnUse"
       gradientTransform="matrix(-1.7e-6,39.03418,39.03418,1.7e-6,184.0625,380.87402)"
       spreadMethod="pad">
      <stop
         id="stop6996"
         style="stop-color:#e7e8e9;stop-opacity:1"
         offset="0" />
      <stop
         id="stop6998"
         style="stop-color:#737577;stop-opacity:1"
         offset="0.5" />
      <stop
         id="stop7000"
         style="stop-color:#bec0c2;stop-opacity:1"
         offset="1" />
    </linearGradient>
    <clipPath
       id="clipPath7008">
      <path
         inkscape:connector-curvature="0"
         d="m 0,502 300.056,0 0,-502 L 0,0 0,502 z"
         id="path7010" />
    </clipPath>
  </defs>
  <sodipodi:namedview
     id="base"
     pagecolor="#ffffff"
     bordercolor="#666666"
     borderopacity="1.0"
     inkscape:pageopacity="0.0"
     inkscape:pageshadow="2"
     inkscape:zoom="0.35"
     inkscape:cx="30.57188"
     inkscape:cy="34.293167"
     inkscape:document-units="px"
     inkscape:current-layer="layer1"
     showgrid="false"
     fit-margin-top="0"
     fit-margin-left="0"
     fit-margin-right="0"
     fit-margin-bottom="0"
     inkscape:window-width="453"
     inkscape:window-height="386"
     inkscape:window-x="455"
     inkscape:window-y="178"
     inkscape:window-maximized="0" />
  <metadata
     id="metadata3961">
    <rdf:RDF>
      <cc:Work
         rdf:about="">
        <dc:format>image/svg+xml</dc:format>
        <dc:type
           rdf:resource="http://purl.org/dc/dcmitype/StillImage" />
        <dc:title></dc:title>
      </cc:Work>
    </rdf:RDF>
  </metadata>
  <g
     inkscape:label="Layer 1"
     inkscape:groupmode="layer"
     id="layer1"
     transform="translate(-344.42812,-498.0691)">
    <g
       id="g6958"
       transform="matrix(1.25,0,0,-1.25,145.28562,1036.8541)">
      <g
         id="g6960"
         clip-path="url(#clipPath6962)">
        <g
           id="g6966">
          <g
             id="g6968">
            <path
               inkscape:connector-curvature="0"
               style="fill:url(#linearGradient6970);stroke:none"
               id="path6980"
               d="m 189.497,431 -10.864,0 c -0.547,0 -1.633,0.193 -1.633,-0.438 l 0,0 0,-6.696 c -10,-2.68 -17.686,-12.175 -17.686,-23.478 l 0,0 c 0,-13.379 11.108,-24.229 24.49,-24.229 l 0,0 c 13.38,0 24.425,10.85 24.425,24.229 l 0,0 c 0,11.017 -7.229,20.312 -17.229,23.256 l 0,0 0,6.918 c 0,0.391 -0.369,0.466 -0.78,0.466 l 0,0 c -0.25,0 -0.516,-0.028 -0.723,-0.028" />
          </g>
        </g>
      </g>
    </g>
    <g
       id="g6982"
       transform="matrix(1.25,0,0,-1.25,145.28562,1036.8541)">
      <g
         id="g6984"
         clip-path="url(#clipPath6986)">
        <g
           id="g6990">
          <g
             id="g6992">
            <path
               inkscape:connector-curvature="0"
               style="fill:url(#linearGradient6994);stroke:none"
               id="path7002"
               d="m 164.544,400.39 c 0,-10.777 8.741,-19.516 19.519,-19.516 l 0,0 c 10.776,0 19.519,8.739 19.519,19.516 l 0,0 c 0,10.779 -8.743,19.519 -19.519,19.519 l 0,0 c -10.778,0 -19.519,-8.74 -19.519,-19.519" />
          </g>
        </g>
      </g>
    </g>
    <g
       id="g7004"
       transform="matrix(1.25,0,0,-1.25,145.28562,1036.8541)">
      <g
         id="g7006"
         clip-path="url(#clipPath7008)">
        <g
           id="g7012"
           transform="translate(190.917,392.1069)">
          <path
             inkscape:connector-curvature="0"
             style="fill:#ffffff;fill-opacity:1;fill-rule:nonzero;stroke:none"
             id="path7014"
             d="M 0,0 -3.188,3.188 C -3.822,3.82 -4.874,3.801 -5.531,3.144 L -7.137,1.538 c -0.101,0.057 -0.206,0.115 -0.316,0.177 -1.015,0.561 -2.402,1.331 -3.863,2.794 -1.465,1.464 -2.236,2.854 -2.799,3.869 -0.06,0.107 -0.117,0.211 -0.173,0.31 l 1.078,1.075 0.529,0.531 c 0.659,0.659 0.676,1.709 0.042,2.344 l -3.186,3.188 c -0.634,0.633 -1.686,0.614 -2.344,-0.044 l -0.897,-0.904 0.024,-0.024 c -0.302,-0.385 -0.554,-0.828 -0.74,-1.306 -0.173,-0.455 -0.281,-0.889 -0.33,-1.324 -0.42,-3.49 1.174,-6.679 5.501,-11.006 5.981,-5.981 10.802,-5.529 11.009,-5.507 0.454,0.054 0.888,0.162 1.33,0.333 0.472,0.186 0.917,0.437 1.3,0.738 l 0.02,-0.018 0.91,0.892 C 0.614,-1.686 0.633,-0.635 0,0" />
        </g>
        <g
           id="g7016"
           transform="translate(187.6377,404.2036)">
          <path
             inkscape:connector-curvature="0"
             style="fill:#ffffff;fill-opacity:1;fill-rule:nonzero;stroke:none"
             id="path7018"
             d="m 0,0 c 1.518,-1.496 1.966,-3.638 1.307,-5.397 l 1.704,0.033 c 0.534,2.178 -0.127,4.663 -1.94,6.45 -1.716,1.693 -4.039,2.338 -6.124,1.926 L -5.062,1.349 C -3.384,1.854 -1.418,1.398 0,0" />
        </g>
        <g
           id="g7020"
           transform="translate(189.5947,406.1885)">
          <path
             inkscape:connector-curvature="0"
             style="fill:#ffffff;fill-opacity:1;fill-rule:nonzero;stroke:none"
             id="path7022"
             d="M 0,0 C 2.007,-1.979 2.797,-4.696 2.325,-7.137 L 4.186,-7.1 C 4.571,-4.212 3.569,-1.081 1.22,1.236 -1.035,3.459 -4.02,4.432 -6.806,4.131 L -6.816,2.29 C -4.476,2.657 -1.911,1.885 0,0" />
        </g>
        <g
           id="g7024"
           transform="translate(191.7266,408.3496)">
          <path
             inkscape:connector-curvature="0"
             style="fill:#ffffff;fill-opacity:1;fill-rule:nonzero;stroke:none"
             id="path7026"
             d="m 0,0 c 2.658,-2.621 3.852,-6.132 3.527,-9.419 l 1.9,0.038 C 5.686,-5.636 4.284,-1.688 1.269,1.286 -1.652,4.166 -5.47,5.523 -9.105,5.323 L -9.116,3.428 C -5.936,3.679 -2.564,2.529 0,0" />
        </g>
      </g>
    </g>
  </g>
</svg>
