<?xml version="1.0" encoding="UTF-8" standalone="no"?>
<!-- Created with Inkscape (http://www.inkscape.org/) -->

<svg
   xmlns:dc="http://purl.org/dc/elements/1.1/"
   xmlns:cc="http://creativecommons.org/ns#"
   xmlns:rdf="http://www.w3.org/1999/02/22-rdf-syntax-ns#"
   xmlns:svg="http://www.w3.org/2000/svg"
   xmlns="http://www.w3.org/2000/svg"
   version="1.1"
   viewBox="0 0 282.67374 464.33875"
   id="svg2"
   xml:space="preserve"><metadata
     id="metadata8"><rdf:RDF><cc:Work
         rdf:about=""><dc:format>image/svg+xml</dc:format><dc:type
           rdf:resource="http://purl.org/dc/dcmitype/StillImage" /><dc:title></dc:title></cc:Work></rdf:RDF></metadata><defs
     id="defs6"><clipPath
       id="clipPath16"><path
         d="m 436.476,92.12 c -0.843,-0.838 -1.307,-1.949 -1.309,-3.127 l 0,0 -0.03,-77.96 c 0,-2.435 1.99,-4.424 4.437,-4.431 l 0,0 50.005,-0.021 c 1.184,0 2.301,0.461 3.145,1.301 l 0,0 c 0.843,0.838 1.306,1.949 1.308,3.127 l 0,0 0.031,77.96 c 0,2.436 -1.993,4.424 -4.45,4.43 l 0,0 -49.994,0.02 c -1.184,0.001 -2.301,-0.46 -3.143,-1.299"
         id="path18" /></clipPath><linearGradient
       x1="0"
       y1="0"
       x2="1"
       y2="0"
       id="linearGradient24"
       gradientUnits="userSpaceOnUse"
       gradientTransform="matrix(-4e-6,90.59919,90.59919,4e-6,464.6001,6.5810547)"
       spreadMethod="pad"><stop
         id="stop26"
         style="stop-color:#c9c2bb;stop-opacity:1"
         offset="0" /><stop
         id="stop28"
         style="stop-color:#f6eada;stop-opacity:1"
         offset="0.208589" /><stop
         id="stop30"
         style="stop-color:#d6cec4;stop-opacity:1"
         offset="0.42944801" /><stop
         id="stop32"
         style="stop-color:#fff7f0;stop-opacity:1"
         offset="1" /></linearGradient><clipPath
       id="clipPath40"><path
         d="m 0,704.585 498.1,0 L 498.1,0 0,0 0,704.585 z"
         id="path42" /></clipPath><clipPath
       id="clipPath56"><path
         d="m 462.155,11.72 c -10e-4,-1.296 1.055,-2.348 2.36,-2.35 l 0,0 c 1.305,0 2.363,1.052 2.364,2.35 l 0,0 c 0,1.296 -1.058,2.347 -2.361,2.349 l 0,0 c -1.304,0 -2.363,-1.052 -2.363,-2.349"
         id="path58" /></clipPath><linearGradient
       x1="0"
       y1="0"
       x2="1"
       y2="0"
       id="linearGradient64"
       gradientUnits="userSpaceOnUse"
       gradientTransform="matrix(4.7241211,0,0,-4.7241211,462.1543,11.71875)"
       spreadMethod="pad"><stop
         id="stop66"
         style="stop-color:#c9c2bb;stop-opacity:1"
         offset="0" /><stop
         id="stop68"
         style="stop-color:#fff3e1;stop-opacity:1"
         offset="0.202454" /><stop
         id="stop70"
         style="stop-color:#d6cec4;stop-opacity:1"
         offset="0.42944801" /><stop
         id="stop72"
         style="stop-color:#fff7f0;stop-opacity:1"
         offset="0.650307" /><stop
         id="stop74"
         style="stop-color:#f6eada;stop-opacity:1"
         offset="0.809816" /><stop
         id="stop76"
         style="stop-color:#fff7f0;stop-opacity:1"
         offset="1" /></linearGradient><clipPath
       id="clipPath84"><path
         d="m 0,704.585 498.1,0 L 498.1,0 0,0 0,704.585 z"
         id="path86" /></clipPath><clipPath
       id="clipPath96"><path
         d="m 462.334,11.694 c -10e-4,-1.206 0.975,-2.182 2.181,-2.185 l 0,0 c 1.205,0 2.183,0.977 2.183,2.184 l 0,0 c 0,0.008 0,0.016 -10e-4,0.025 l 0,0 c -0.605,-0.174 -1.361,-0.276 -2.181,-0.276 l 0,0 c -0.822,10e-4 -1.578,0.104 -2.181,0.278 l 0,0 c 0,-0.009 -10e-4,-0.018 -10e-4,-0.026"
         id="path98" /></clipPath><clipPath
       id="clipPath104"><path
         d="m -32768,32767 65535,0 0,-65535 -65535,0 0,65535 z"
         id="path106" /></clipPath><linearGradient
       x1="0"
       y1="0"
       x2="1"
       y2="0"
       id="linearGradient108"
       gradientUnits="userSpaceOnUse"
       gradientTransform="matrix(-8.837e-4,-2.2089844,-2.2089844,8.837e-4,464.51611,11.71875)"
       spreadMethod="pad"><stop
         id="stop110"
         style="stop-color:#ffffff;stop-opacity:0"
         offset="0" /><stop
         id="stop112"
         style="stop-color:#ffffff;stop-opacity:1"
         offset="0.5" /><stop
         id="stop114"
         style="stop-color:#ffffff;stop-opacity:1"
         offset="1" /></linearGradient><mask
       id="mask116"><g
         id="g118"><g
           clip-path="url(#clipPath104)"
           id="g120"><g
             id="g122"><g
               id="g124"><path
                 d="m -32768,32767 65535,0 0,-65535 -65535,0 0,65535 z"
                 id="path126"
                 style="fill:url(#linearGradient108);stroke:none" /></g></g></g></g></mask><linearGradient
       x1="0"
       y1="0"
       x2="1"
       y2="0"
       id="linearGradient132"
       gradientUnits="userSpaceOnUse"
       gradientTransform="matrix(-8.837e-4,-2.2089844,-2.2089844,8.837e-4,464.51611,11.71875)"
       spreadMethod="pad"><stop
         id="stop134"
         style="stop-color:#ffffff;stop-opacity:1"
         offset="0" /><stop
         id="stop136"
         style="stop-color:#ffffff;stop-opacity:1"
         offset="1" /></linearGradient><clipPath
       id="clipPath144"><path
         d="m 0,704.585 498.1,0 L 498.1,0 0,0 0,704.585 z"
         id="path146" /></clipPath><clipPath
       id="clipPath156"><path
         d="m 454.546,93.0381 36.51,0 0,-71.4727 -36.51,0 0,71.4727 z"
         id="path158" /></clipPath><clipPath
       id="clipPath160"><path
         d="m 491.026,21.565 0.03,67.388 c 0.003,2.238 -1.829,4.071 -4.067,4.071 l -32.443,0.014 36.48,-71.473 z"
         id="path162" /></clipPath><clipPath
       id="clipPath164"><path
         d="m -32768,32767 65535,0 0,-65535 -65535,0 0,65535 z"
         id="path166" /></clipPath><linearGradient
       x1="0"
       y1="0"
       x2="1"
       y2="0"
       id="linearGradient168"
       gradientUnits="userSpaceOnUse"
       gradientTransform="matrix(137.46552,-0.0549862,-0.0549862,-137.46552,444.91455,57.3125)"
       spreadMethod="pad"><stop
         id="stop170"
         style="stop-color:#ffffff;stop-opacity:1"
         offset="0" /><stop
         id="stop172"
         style="stop-color:#ffffff;stop-opacity:0"
         offset="0.88844401" /><stop
         id="stop174"
         style="stop-color:#ffffff;stop-opacity:0"
         offset="1" /></linearGradient><mask
       id="mask176"><g
         id="g178"><g
           clip-path="url(#clipPath164)"
           id="g180"><g
             id="g182"><g
               id="g184"><path
                 d="m -32768,32767 65535,0 0,-65535 -65535,0 0,65535 z"
                 id="path186"
                 style="fill:url(#linearGradient168);stroke:none" /></g></g></g></g></mask><linearGradient
       x1="0"
       y1="0"
       x2="1"
       y2="0"
       id="linearGradient188"
       gradientUnits="userSpaceOnUse"
       gradientTransform="matrix(137.46552,-0.0549862,-0.0549862,-137.46552,444.91455,57.3125)"
       spreadMethod="pad"><stop
         id="stop190"
         style="stop-color:#ffffff;stop-opacity:1"
         offset="0" /><stop
         id="stop192"
         style="stop-color:#ffffff;stop-opacity:1"
         offset="1" /></linearGradient><clipPath
       id="clipPath216"><path
         d="m 463.923,88.5 c 0,-0.336 0.273,-0.606 0.608,-0.609 l 0,0 c 0.335,0 0.608,0.272 0.608,0.609 l 0,0 c 0,0.335 -0.272,0.608 -0.608,0.608 l 0,0 c -0.335,0 -0.608,-0.272 -0.608,-0.608"
         id="path218" /></clipPath><linearGradient
       x1="0"
       y1="0"
       x2="1"
       y2="0"
       id="linearGradient224"
       gradientUnits="userSpaceOnUse"
       gradientTransform="matrix(4.794e-4,1.1985741,1.1985741,-4.794e-4,464.53076,87.928711)"
       spreadMethod="pad"><stop
         id="stop226"
         style="stop-color:#656566;stop-opacity:1"
         offset="0" /><stop
         id="stop228"
         style="stop-color:#2a2a2b;stop-opacity:1"
         offset="1" /></linearGradient><clipPath
       id="clipPath236"><path
         d="m 464.363,89.042 c -0.09,-0.028 -0.169,-0.076 -0.232,-0.14 l 0,0 c -0.038,-0.037 -0.07,-0.077 -0.095,-0.125 l 0,0 c -0.078,-0.139 -0.091,-0.302 -0.043,-0.446 l 0,0 c 0.026,-0.087 0.072,-0.166 0.136,-0.232 l 0,0 c 0.065,-0.063 0.143,-0.112 0.234,-0.139 l 0,0 c 0.117,-0.038 0.246,-0.034 0.361,0.007 l 0,0 c 0.077,0.027 0.15,0.073 0.21,0.132 l 0,0 c 0.065,0.065 0.111,0.145 0.138,0.232 l 0,0 c 0.045,0.144 0.034,0.306 -0.045,0.445 l 0,0 c -0.026,0.049 -0.055,0.088 -0.093,0.125 l 0,0 c -0.06,0.061 -0.133,0.105 -0.21,0.133 l 0,0 c -0.062,0.023 -0.128,0.035 -0.193,0.035 l 0,0 c -0.057,0 -0.114,-0.009 -0.168,-0.027"
         id="path238" /></clipPath><clipPath
       id="clipPath37534"><path
         d="m 464.289,88.5 c 0,-0.133 0.109,-0.242 0.241,-0.242 l 0,0 c 0.134,0 0.241,0.109 0.241,0.242 l 0,0 c 0,0.133 -0.107,0.241 -0.241,0.241 l 0,0 c -0.132,-0.001 -0.241,-0.107 -0.241,-0.241"
         id="path37536" /></clipPath><linearGradient
       x1="0"
       y1="0"
       x2="1"
       y2="0"
       id="linearGradient37542"
       gradientUnits="userSpaceOnUse"
       gradientTransform="matrix(-1.901e-4,-0.4751971,-0.4751971,1.901e-4,464.52881,88.726562)"
       spreadMethod="pad"><stop
         id="stop37544"
         style="stop-color:#2d3034;stop-opacity:1"
         offset="0" /><stop
         id="stop37546"
         style="stop-color:#444d4f;stop-opacity:1"
         offset="1" /></linearGradient><clipPath
       id="clipPath37554"><path
         d="m 464.336,88.5 c 0,-0.107 0.086,-0.196 0.194,-0.195 l 0,0 c 0.108,-0.001 0.195,0.088 0.195,0.195 l 0,0 c 10e-4,0.108 -0.087,0.194 -0.195,0.194 l 0,0 c -0.108,0 -0.194,-0.085 -0.194,-0.194"
         id="path37556" /></clipPath><linearGradient
       x1="0"
       y1="0"
       x2="1"
       y2="0"
       id="linearGradient37562"
       gradientUnits="userSpaceOnUse"
       gradientTransform="matrix(1.531e-4,0.3828511,0.3828511,-1.531e-4,464.52979,88.317871)"
       spreadMethod="pad"><stop
         id="stop37564"
         style="stop-color:#565859;stop-opacity:1"
         offset="0" /><stop
         id="stop37566"
         style="stop-color:#404141;stop-opacity:1"
         offset="0.60606098" /><stop
         id="stop37568"
         style="stop-color:#333635;stop-opacity:1"
         offset="1" /></linearGradient><clipPath
       id="clipPath37576"><path
         d="m 464.382,88.5 c 0,-0.081 0.067,-0.149 0.148,-0.149 l 0,0 c 0.083,0 0.149,0.067 0.148,0.149 l 0,0 c 10e-4,0.082 -0.066,0.147 -0.148,0.147 l 0,0 c -0.081,0 -0.148,-0.065 -0.148,-0.147"
         id="path37578" /></clipPath><radialGradient
       cx="0"
       cy="0"
       r="1"
       fx="0"
       fy="0"
       id="radialGradient37584"
       gradientUnits="userSpaceOnUse"
       gradientTransform="matrix(0.1481936,-5.93e-5,-5.93e-5,-0.1481936,464.52979,88.499512)"
       spreadMethod="pad"><stop
         id="stop37586"
         style="stop-color:#302e33;stop-opacity:1"
         offset="0" /><stop
         id="stop37588"
         style="stop-color:#3a4799;stop-opacity:1"
         offset="0.57575798" /><stop
         id="stop37590"
         style="stop-color:#536bb1;stop-opacity:1"
         offset="1" /></radialGradient><clipPath
       id="clipPath37598"><path
         d="m 0,704.585 498.1,0 L 498.1,0 0,0 0,704.585 z"
         id="path37600" /></clipPath><clipPath
       id="clipPath37610"><path
         d="m 56.157,148.523 226.139,0 0,371.471 -226.139,0 0,-371.471 z"
         id="path37612" /></clipPath><radialGradient
       cx="0"
       cy="0"
       r="1"
       fx="0"
       fy="0"
       id="radialGradient37618"
       gradientUnits="userSpaceOnUse"
       gradientTransform="matrix(99.737862,149.409,267.06692,-178.28033,173.42725,344.93848)"
       spreadMethod="pad"><stop
         id="stop37620"
         style="stop-color:#ffffff;stop-opacity:1"
         offset="0" /><stop
         id="stop37622"
         style="stop-color:#c1343e;stop-opacity:1"
         offset="1" /></radialGradient></defs><g
     transform="matrix(1.25,0,0,-1.25,-70.19625,649.9925)"
     id="g10"><g
       id="g37606"><g
         clip-path="url(#clipPath37610)"
         id="g37608"><g
           id="g37614"><g
             id="g37616"><path
               d="m 56.157,148.523 226.139,0 0,371.471 -226.139,0 0,-371.471 z"
               id="path37624"
               style="fill:url(#radialGradient37618);stroke:none" /></g></g></g></g></g></svg>
