<?xml version="1.0" encoding="UTF-8" standalone="no"?>
<!-- Created with Inkscape (http://www.inkscape.org/) -->

<svg
   xmlns:dc="http://purl.org/dc/elements/1.1/"
   xmlns:cc="http://creativecommons.org/ns#"
   xmlns:rdf="http://www.w3.org/1999/02/22-rdf-syntax-ns#"
   xmlns:svg="http://www.w3.org/2000/svg"
   xmlns="http://www.w3.org/2000/svg"
   xmlns:xlink="http://www.w3.org/1999/xlink"
   xmlns:sodipodi="http://sodipodi.sourceforge.net/DTD/sodipodi-0.dtd"
   xmlns:inkscape="http://www.inkscape.org/namespaces/inkscape"
   viewBox="0 0 30.8125 30.8125"
   id="btn-mao-faca"
   version="1.1"
   inkscape:version="0.48.4 r9939"
   sodipodi:docname="btn-mao-faca.svg">
  <defs
     id="defs8236">
    <linearGradient
       id="linearGradient3250">
      <stop
         style="stop-color:#000000;stop-opacity:1;"
         offset="0"
         id="stop3252" />
      <stop
         style="stop-color:#ffffff;stop-opacity:1;"
         offset="1"
         id="stop3254" />
    </linearGradient>
    <linearGradient
       inkscape:collect="always"
       xlink:href="#linearGradient3250"
       id="linearGradient3256"
       x1="23.28125"
       y1="13.625"
       x2="24.84375"
       y2="16.303572"
       gradientUnits="userSpaceOnUse" />
  </defs>
  <sodipodi:namedview
     id="base"
     pagecolor="#ffffff"
     bordercolor="#666666"
     borderopacity="1.0"
     inkscape:pageopacity="0.0"
     inkscape:pageshadow="2"
     inkscape:zoom="44.8"
     inkscape:cx="22.208669"
     inkscape:cy="13.480598"
     inkscape:document-units="px"
     inkscape:current-layer="layer1"
     showgrid="false"
     fit-margin-top="0"
     fit-margin-left="0"
     fit-margin-right="0"
     fit-margin-bottom="0"
     inkscape:window-width="1366"
     inkscape:window-height="713"
     inkscape:window-x="0"
     inkscape:window-y="30"
     inkscape:window-maximized="1" />
  <metadata
     id="metadata8239">
    <rdf:RDF>
      <cc:Work
         rdf:about="">
        <dc:format>image/svg+xml</dc:format>
        <dc:type
           rdf:resource="http://purl.org/dc/dcmitype/StillImage" />
        <dc:title />
      </cc:Work>
    </rdf:RDF>
  </metadata>
  <g
     inkscape:label="Layer 1"
     inkscape:groupmode="layer"
     id="layer1"
     transform="translate(-359.59375,-516.95593)">
    <path
       inkscape:connector-curvature="0"
       style="fill:#ffffff;fill-opacity:1;fill-rule:nonzero;stroke:none"
       id="path18042"
       d="m 375,547.76843 c -8.50875,0 -15.40625,-6.8975 -15.40625,-15.40625 0,-8.50875 6.8975,-15.40625 15.40625,-15.40625 8.50875,0 15.40625,6.8975 15.40625,15.40625 0,8.50875 -6.8975,15.40625 -15.40625,15.40625" />
    <path
       inkscape:connector-curvature="0"
       style="fill:#29aca0;fill-opacity:1;fill-rule:nonzero;stroke:none"
       id="path18070"
       d="m 386.89638,532.36193 c 0,6.57 -5.32625,11.89625 -11.89625,11.89625 -6.57001,0 -11.89625,-5.32625 -11.89625,-11.89625 0,-6.57 5.32624,-11.89625 11.89625,-11.89625 6.57,0 11.89625,5.32625 11.89625,11.89625" />
    <path
       inkscape:connector-curvature="0"
       style="opacity:0.19999701;fill:#ffffff;fill-opacity:1;fill-rule:nonzero;stroke:none"
       id="path18298"
       d="m 363.11275,532.36193 c 0,6.57 5.32625,11.89625 11.89625,11.89625 2.39375,0 4.62125,-0.71 6.4875,-1.9275 -15.7175,-1.62375 -18.38375,-9.96875 -18.38375,-9.96875" />
    <path
       inkscape:connector-curvature="0"
       style="opacity:0.19999701;fill:#ffffff;fill-opacity:1;fill-rule:nonzero;stroke:none"
       id="path18310"
       d="m 386.88713,532.36193 c 0,0 -2.66626,8.345 -18.38376,9.96875 1.8675,1.2175 4.09375,1.9275 6.48751,1.9275 6.56999,0 11.89625,-5.32625 11.89625,-11.89625" />
    <path
       inkscape:connector-curvature="0"
       style="fill:#ffffff;fill-opacity:1;fill-rule:evenodd;stroke:none"
       id="path22242"
       d="m 373.59062,542.72143 -0.22999,-2.67 c -0.63,-0.8025 -1.4675,-1.445 -2.09875,-2.24625 -0.55125,-0.7025 -0.895,-1.56625 -1.4475,-2.2675 -0.22876,-0.33 -0.7825,-0.67375 -1.30626,-1.11125 -0.44,-0.37 -0.69375,-0.72125 -1.0975,-1.05875 -0.37375,-0.31375 -0.90625,-0.62375 -1.1225,-0.76625 -0.95624,-0.6325 0.74,-1.845 1.795,-1.28 0.555,0.2975 1.185,0.8 1.64876,1.27125 1.17625,1.19625 1.7825,0.9725 2.01375,0.25 0.1475,-0.4575 0.20625,-0.8625 0.24125,-1.59375 0.0387,-0.795 -0.19875,-1.59 -0.3775,-2.4525 -0.1825,-0.87625 -0.31,-1.82125 -0.505,-2.66875 -0.165,-0.715 -0.39875,-1.43875 -0.36625,-2.045 0.0487,-0.90375 1.74375,-1.29875 1.9225,0.43375 0.16125,1.54125 0.46625,1.70625 0.84875,2.97 0.46375,1.5375 1.0475,3.54875 1.3025,2.19125 l 0.4175,-3.875 c 0.26875,-1.28125 0.22375,-2.28875 0.50125,-2.88375 0.33125,-0.71 0.695,-0.73375 0.9675,-0.7175 0.2925,0.0175 0.655,0.0338 0.8025,0.5175 0.0813,0.265 -0.0213,0.61625 -0.0213,1.02125 10e-4,0.3325 -0.11,0.7375 -0.1125,1.09875 -0.0263,2.68875 -0.6725,5.65875 -0.43125,5.54625 0.0937,-0.045 0.41625,-0.7075 0.86625,-1.81875 0.15375,-0.38 0.6325,-1.3925 1.07,-2.39625 0.30875,-0.70625 0.5,-1.46125 0.83125,-1.8875 0.2375,-0.30625 0.6,-0.41625 0.8675,-0.35 0.72625,0.31625 0.585,0.98 0.3575,1.77625 -0.20125,0.7 -0.44,1.52875 -0.615,1.95375 l -0.16,0.5875 c -2.055,5.1975 -0.5525,2.9725 0.69375,0.90375 0.82,-1.36875 2.4125,-3.0125 2.49125,-1.58 0.0362,0.66375 -2.10375,4.125 -2.52125,4.72875 l -0.41125,2.72875 c -0.0637,1.36625 -0.39,3.34625 -1.2425,4.42125 l 0.31625,3.2075 -5.88875,0.0613 z" />
    <path
       inkscape:connector-curvature="0"
       style="fill:#ffffff;fill-opacity:1;fill-rule:evenodd;stroke:none"
       id="path22246"
       d="m 372.40413,536.79431 2.05125,-1.6325 5.21499,-2.4075 0.15875,1.06125 -0.15875,-1.06125 0.15875,1.06125 -0.15875,-1.06125 0.15875,1.06125 0.0663,2.05125 c -2.49749,0.30875 -5.08875,2.525 -7.49124,0.9275" />
    <path
       inkscape:connector-curvature="0"
       style="fill:none;stroke:#29aca0;stroke-width:0.625;stroke-linecap:butt;stroke-linejoin:miter;stroke-miterlimit:22.9260006;stroke-opacity:1;stroke-dasharray:none"
       id="path22250"
       d="m 372.40413,536.79431 2.05125,-1.6325 5.21499,-2.4075 0.15875,1.06125 -0.15875,-1.06125 0.15875,1.06125 -0.15875,-1.06125 0.15875,1.06125 0.0663,2.05125 c -2.49749,0.30875 -5.08875,2.525 -7.49124,0.9275 z" />
    <path
       style="fill:url(#linearGradient3256);stroke:none;stroke-width:1px;stroke-linecap:butt;stroke-linejoin:miter;stroke-opacity:1;fill-opacity:1"
       d="m 20.245536,16.883929 -0.178572,-1.116072 5.647322,-2.589286 0.602678,0.15625 0.513393,0.580358 -0.08929,0.959821 -1.026786,0.9375 -0.245536,0.04464 -0.357143,-0.535714 -0.357143,-0.200893 -0.3125,0.580357 -3.616071,1.339286 -0.357143,-0.267858 z"
       id="path3248"
       inkscape:connector-curvature="0"
       transform="translate(359.59375,516.95593)" />
  </g>
</svg>
