<?xml version="1.0" encoding="UTF-8" standalone="no"?>
<!-- Created with Inkscape (http://www.inkscape.org/) -->

<svg
   xmlns:dc="http://purl.org/dc/elements/1.1/"
   xmlns:cc="http://creativecommons.org/ns#"
   xmlns:rdf="http://www.w3.org/1999/02/22-rdf-syntax-ns#"
   xmlns:svg="http://www.w3.org/2000/svg"
   xmlns="http://www.w3.org/2000/svg"
   xmlns:sodipodi="http://sodipodi.sourceforge.net/DTD/sodipodi-0.dtd"
   xmlns:inkscape="http://www.inkscape.org/namespaces/inkscape"
   viewBox="0 0 30.812187 30.813126"
   id="btn-mao-agua"
   version="1.1"
   inkscape:version="0.48.4 r9939"
   sodipodi:docname="New document 2">
  <defs
     id="defs7718" />
  <sodipodi:namedview
     id="base"
     pagecolor="#ffffff"
     bordercolor="#666666"
     borderopacity="1.0"
     inkscape:pageopacity="0.0"
     inkscape:pageshadow="2"
     inkscape:zoom="0.35"
     inkscape:cx="15.406098"
     inkscape:cy="15.406565"
     inkscape:document-units="px"
     inkscape:current-layer="layer1"
     showgrid="false"
     fit-margin-top="0"
     fit-margin-left="0"
     fit-margin-right="0"
     fit-margin-bottom="0"
     inkscape:window-width="453"
     inkscape:window-height="386"
     inkscape:window-x="455"
     inkscape:window-y="178"
     inkscape:window-maximized="0" />
  <metadata
     id="metadata7721">
    <rdf:RDF>
      <cc:Work
         rdf:about="">
        <dc:format>image/svg+xml</dc:format>
        <dc:type
           rdf:resource="http://purl.org/dc/dcmitype/StillImage" />
        <dc:title></dc:title>
      </cc:Work>
    </rdf:RDF>
  </metadata>
  <g
     inkscape:label="Layer 1"
     inkscape:groupmode="layer"
     id="layer1"
     transform="translate(-359.5939,-516.95562)">
    <path
       inkscape:connector-curvature="0"
       style="fill:#ffffff;fill-opacity:1;fill-rule:nonzero;stroke:none"
       id="path18038"
       d="m 385.89484,543.25656 c -6.0175,6.01625 -15.7725,6.01625 -21.78875,0 -6.01625,-6.0175 -6.01625,-15.77125 0,-21.78875 6.01625,-6.01625 15.77125,-6.01625 21.78875,0 6.015,6.0175 6.015,15.77125 0,21.78875" />
    <path
       inkscape:connector-curvature="0"
       style="fill:#fcb248;fill-opacity:1;fill-rule:nonzero;stroke:none"
       id="path18082"
       d="m 386.89647,532.36243 c 0,6.56875 -5.32625,11.89625 -11.89625,11.89625 -6.57,0 -11.89625,-5.3275 -11.89625,-11.89625 0,-6.56875 5.32625,-11.89625 11.89625,-11.89625 6.57,0 11.89625,5.3275 11.89625,11.89625" />
    <path
       inkscape:connector-curvature="0"
       style="opacity:0.19999701;fill:#ffffff;fill-opacity:1;fill-rule:nonzero;stroke:none"
       id="path18430"
       d="m 363.14772,532.56993 c 0,6.56875 5.325,11.895 11.895,11.895 2.395,0 4.62125,-0.71 6.48875,-1.92625 -15.7175,-1.625 -18.38375,-9.96875 -18.38375,-9.96875" />
    <path
       inkscape:connector-curvature="0"
       style="opacity:0.19999701;fill:#ffffff;fill-opacity:1;fill-rule:nonzero;stroke:none"
       id="path18442"
       d="m 386.92147,532.56993 c 0,0 -2.66625,8.34375 -18.38375,9.96875 1.86625,1.21625 4.09375,1.92625 6.48875,1.92625 6.56875,0 11.895,-5.32625 11.895,-11.895" />
    <path
       inkscape:connector-curvature="0"
       style="fill:#ffffff;fill-opacity:1;fill-rule:evenodd;stroke:none"
       id="path22226"
       d="m 376.74272,529.80018 c 0.12125,0.285 3.23625,-0.47625 2.39,0.55875 -0.57,0.695 -0.86875,0.53875 -1.45125,0.53625 -1.465,-0.005 -1.10375,0.1725 -1.4525,0.36 -0.1525,0.0812 -0.49125,0.365 -0.5825,0.4 -0.0775,0.875 -0.39375,2.3025 -0.47125,3.1775 0.02,0.8725 0.3,1.54875 0.36125,2.04125 -0.0238,-0.19125 -0.08,-0.40875 -0.05,-0.94875 l 1.25625,-6.125 z m -0.009,-0.025 c 0.002,0.009 0.005,0.0175 0,0 m -3.66875,6.75 c -0.055,0.10125 -0.11,0.2025 -0.16625,0.3075 0.0375,-0.41625 0.2175,-0.95 0.305,-1.6625 0.13,-1.04625 -0.1525,-2.465 0.0387,-4.0975 -0.0575,-0.31875 -0.335,-0.58 -0.39125,-0.9 -0.15375,-0.34875 0.0675,-0.99125 -0.0863,-1.34 -0.16,-0.29375 -0.695,-0.7225 -0.94875,-1.1775 -0.68,-1.22 0.27375,-1.1825 0.72,-0.40875 0.085,0.14625 0.95875,1.445 1.21875,1.0675 -0.02,-0.245 -0.0662,-0.75625 -0.12375,-0.97 -0.1975,-0.74875 -0.75875,-1.73875 -0.33375,-2.1175 0.8825,-0.78625 1.0325,1.995 1.32625,2.83625 0.42875,-0.0775 0.28125,-0.29125 0.29,-0.585 0.015,-0.47625 -0.0562,-1.17125 0.0688,-1.8325 0.1825,-0.97 0.78,-0.89125 0.89375,-0.1575 0.0837,0.5425 -0.10875,1.94875 -0.10125,2.43375 0.0113,0.795 0.22375,0.275 0.33875,-0.545 0.36125,-2.5725 2.56875,-3.2175 0.64125,1.085 0.002,0.35875 0.18375,0.42875 -0.185,1.31625 l -3.505,6.7475 z" />
    <path
       inkscape:connector-curvature="0"
       style="fill:#ffffff;fill-opacity:1;fill-rule:nonzero;stroke:none"
       id="path22230"
       d="m 375.54459,534.18668 c -0.57125,0.24375 2.14,-0.1875 3.525,-0.15375 1.285,0.0325 2.64,0.52 2.92125,0.6925 0.155,0.1 0.14125,0.04 0.26875,0.1775 l 0.0125,0.009 c 0.99625,0.7125 1.3825,1.6275 1.12375,2.53875 -0.46,1.6225 -2.76375,3.34 -8.455,3.34 -2.2,0 -4.21875,-0.3075 -5.79375,-0.81875 -0.6725,-0.2175 -0.4675,-1.41 -0.9575,-1.695 -0.98625,-0.5725 -2.36,-0.32625 -2.36,-1.07 0,-1.345 1.80375,-2.8825 4.5325,-3.2925 0.93,-0.14 1.89875,0.56875 3.02875,0.5525" />
    <path
       inkscape:connector-curvature="0"
       style="fill:none;stroke:#fcb248;stroke-width:0.3125;stroke-linecap:butt;stroke-linejoin:miter;stroke-miterlimit:22.9260006;stroke-opacity:1;stroke-dasharray:none"
       id="path22234"
       d="m 377.05459,529.33993 c 0,0 -0.7875,-0.2475 -1.47,0.0263 m -5.05125,7.235 c 0,0 1.39875,1.935 3.54875,1.95375 1.1075,0.009 2.44,-0.61 3.83,-2.01125 m -2.0425,-1.19875 c 0,0 2.155,0.79625 0.19875,1.85 m -3.02625,-1.62375 c 0,0 -2.64625,0.9325 -0.18125,1.76125" />
  </g>
</svg>
