<?xml version="1.0" encoding="UTF-8" standalone="no"?>
<!-- Created with Inkscape (http://www.inkscape.org/) -->

<svg
   xmlns:dc="http://purl.org/dc/elements/1.1/"
   xmlns:cc="http://creativecommons.org/ns#"
   xmlns:rdf="http://www.w3.org/1999/02/22-rdf-syntax-ns#"
   xmlns:svg="http://www.w3.org/2000/svg"
   xmlns="http://www.w3.org/2000/svg"
   xmlns:sodipodi="http://sodipodi.sourceforge.net/DTD/sodipodi-0.dtd"
   xmlns:inkscape="http://www.inkscape.org/namespaces/inkscape"
   viewBox="0 0 40.779999 45.927502"
   id="btn-home"
   version="1.1"
   inkscape:version="0.48.4 r9939"
   sodipodi:docname="New document 2">
  <defs
     id="defs3953">
    <clipPath
       id="clipPath6842">
      <path
         inkscape:connector-curvature="0"
         d="m 245.003,431.141 c 0.018,0.04 0.019,0.073 0.014,0.073 l 0,0 c -0.003,0 -0.01,-0.021 -0.014,-0.073 m -9.003,-0.108 0,-4.5 c -7,-1.801 -11.707,-8.181 -11.707,-15.778 l 0,0 c 0,-8.991 7.555,-16.283 16.548,-16.283 l 0,0 c 8.992,0 16.076,7.292 16.076,16.283 l 0,0 c 0,7.404 -4.917,13.65 -11.917,15.63 l 0,0 0,4.648 c 0,0.046 0.001,0.081 0.003,0.108 l 0,0 C 244.976,431.079 244.908,431 244.756,431 l 0,0 -7.302,0 c -0.251,0 -0.838,0.214 -1.184,0.214 l 0,0 c -0.161,0 -0.27,-0.046 -0.27,-0.181"
         id="path6844" />
    </clipPath>
    <linearGradient
       x1="0"
       y1="0"
       x2="1"
       y2="0"
       id="linearGradient6850"
       gradientUnits="userSpaceOnUse"
       gradientTransform="matrix(-1.6e-6,-36.741699,-36.741699,1.6e-6,240.60547,431.21338)"
       spreadMethod="pad">
      <stop
         id="stop6852"
         style="stop-color:#fafaf9;stop-opacity:1"
         offset="0" />
      <stop
         id="stop6854"
         style="stop-color:#f6f6f6;stop-opacity:1"
         offset="0.42857099" />
      <stop
         id="stop6856"
         style="stop-color:#f6f6f6;stop-opacity:1"
         offset="0.42857099" />
      <stop
         id="stop6858"
         style="stop-color:#cacfd0;stop-opacity:1"
         offset="1" />
    </linearGradient>
    <clipPath
       id="clipPath6866">
      <path
         inkscape:connector-curvature="0"
         d="m 227.986,410.756 c 0,-7.242 5.875,-13.115 13.118,-13.115 l 0,0 c 7.242,0 13.118,5.873 13.118,13.115 l 0,0 c 0,7.244 -5.876,13.118 -13.118,13.118 l 0,0 c -7.243,0 -13.118,-5.874 -13.118,-13.118"
         id="path6868" />
    </clipPath>
    <linearGradient
       x1="0"
       y1="0"
       x2="1"
       y2="0"
       id="linearGradient6874"
       gradientUnits="userSpaceOnUse"
       gradientTransform="matrix(-1.1e-6,26.23291,26.23291,1.1e-6,241.10352,397.64111)"
       spreadMethod="pad">
      <stop
         id="stop6876"
         style="stop-color:#e7e8e9;stop-opacity:1"
         offset="0" />
      <stop
         id="stop6878"
         style="stop-color:#737577;stop-opacity:1"
         offset="0.5" />
      <stop
         id="stop6880"
         style="stop-color:#bec0c2;stop-opacity:1"
         offset="1" />
    </linearGradient>
    <clipPath
       id="clipPath6888">
      <path
         inkscape:connector-curvature="0"
         d="m 235.161,411.711 0.913,-1.197 0.624,0.476 -0.004,-5.491 3.139,-0.003 0.003,3.027 2.281,-0.002 -0.003,-3.029 3.113,-0.001 0.007,5.491 0.624,-0.478 0.915,1.194 -2.105,1.61 0.003,2.659 -1.505,0.001 -0.001,-1.51 -2.193,1.679 -5.811,-4.426 z"
         id="path6890" />
    </clipPath>
    <linearGradient
       x1="0"
       y1="0"
       x2="1"
       y2="0"
       id="linearGradient6896"
       gradientUnits="userSpaceOnUse"
       gradientTransform="matrix(-5e-7,10.645996,10.645996,5e-7,240.9668,405.49023)"
       spreadMethod="pad">
      <stop
         id="stop6898"
         style="stop-color:#fafaf9;stop-opacity:1"
         offset="0" />
      <stop
         id="stop6900"
         style="stop-color:#f6f6f6;stop-opacity:1"
         offset="0.42857099" />
      <stop
         id="stop6902"
         style="stop-color:#f6f6f6;stop-opacity:1"
         offset="0.42857099" />
      <stop
         id="stop6904"
         style="stop-color:#cacfd0;stop-opacity:1"
         offset="1" />
    </linearGradient>
  </defs>
  <sodipodi:namedview
     id="base"
     pagecolor="#ffffff"
     bordercolor="#666666"
     borderopacity="1.0"
     inkscape:pageopacity="0.0"
     inkscape:pageshadow="2"
     inkscape:zoom="0.35"
     inkscape:cx="52.532857"
     inkscape:cy="314.39232"
     inkscape:document-units="px"
     inkscape:current-layer="layer1"
     showgrid="false"
     fit-margin-top="0"
     fit-margin-left="0"
     fit-margin-right="0"
     fit-margin-bottom="0"
     inkscape:window-width="453"
     inkscape:window-height="386"
     inkscape:window-x="455"
     inkscape:window-y="178"
     inkscape:window-maximized="0" />
  <metadata
     id="metadata3956">
    <rdf:RDF>
      <cc:Work
         rdf:about="">
        <dc:format>image/svg+xml</dc:format>
        <dc:type
           rdf:resource="http://purl.org/dc/dcmitype/StillImage" />
        <dc:title></dc:title>
      </cc:Work>
    </rdf:RDF>
  </metadata>
  <g
     inkscape:label="Layer 1"
     inkscape:groupmode="layer"
     id="layer1"
     transform="translate(-322.46714,-800.827)">
    <g
       id="g6838"
       transform="matrix(1.25,0,0,-1.25,42.100893,1339.8445)">
      <g
         id="g6840"
         clip-path="url(#clipPath6842)">
        <g
           id="g6846">
          <g
             id="g6848">
            <path
               inkscape:connector-curvature="0"
               style="fill:url(#linearGradient6850);stroke:none"
               id="path6860"
               d="m 245.003,431.141 c 0.018,0.04 0.019,0.073 0.014,0.073 l 0,0 c -0.003,0 -0.01,-0.021 -0.014,-0.073 m -9.003,-0.108 0,-4.5 c -7,-1.801 -11.707,-8.181 -11.707,-15.778 l 0,0 c 0,-8.991 7.555,-16.283 16.548,-16.283 l 0,0 c 8.992,0 16.076,7.292 16.076,16.283 l 0,0 c 0,7.404 -4.917,13.65 -11.917,15.63 l 0,0 0,4.648 c 0,0.046 0.001,0.081 0.003,0.108 l 0,0 C 244.976,431.079 244.908,431 244.756,431 l 0,0 -7.302,0 c -0.251,0 -0.838,0.214 -1.184,0.214 l 0,0 c -0.161,0 -0.27,-0.046 -0.27,-0.181" />
          </g>
        </g>
      </g>
    </g>
    <g
       id="g6862"
       transform="matrix(1.25,0,0,-1.25,42.100893,1339.8445)">
      <g
         id="g6864"
         clip-path="url(#clipPath6866)">
        <g
           id="g6870">
          <g
             id="g6872">
            <path
               inkscape:connector-curvature="0"
               style="fill:url(#linearGradient6874);stroke:none"
               id="path6882"
               d="m 227.986,410.756 c 0,-7.242 5.875,-13.115 13.118,-13.115 l 0,0 c 7.242,0 13.118,5.873 13.118,13.115 l 0,0 c 0,7.244 -5.876,13.118 -13.118,13.118 l 0,0 c -7.243,0 -13.118,-5.874 -13.118,-13.118" />
          </g>
        </g>
      </g>
    </g>
    <g
       id="g6884"
       transform="matrix(1.25,0,0,-1.25,42.100893,1339.8445)">
      <g
         id="g6886"
         clip-path="url(#clipPath6888)">
        <g
           id="g6892">
          <g
             id="g6894">
            <path
               inkscape:connector-curvature="0"
               style="fill:url(#linearGradient6896);stroke:none"
               id="path6906"
               d="m 235.161,411.711 0.913,-1.197 0.624,0.476 -0.004,-5.491 3.139,-0.003 0.003,3.027 2.281,-0.002 -0.003,-3.029 3.113,-0.001 0.007,5.491 0.624,-0.478 0.915,1.194 -2.105,1.61 0.003,2.659 -1.505,0.001 -0.001,-1.51 -2.193,1.679 -5.811,-4.426 z" />
          </g>
        </g>
      </g>
    </g>
  </g>
</svg>
