<?xml version="1.0" encoding="UTF-8" standalone="no"?>
<!-- Created with Inkscape (http://www.inkscape.org/) -->

<svg
   xmlns:dc="http://purl.org/dc/elements/1.1/"
   xmlns:cc="http://creativecommons.org/ns#"
   xmlns:rdf="http://www.w3.org/1999/02/22-rdf-syntax-ns#"
   xmlns:svg="http://www.w3.org/2000/svg"
   xmlns="http://www.w3.org/2000/svg"
   xmlns:sodipodi="http://sodipodi.sourceforge.net/DTD/sodipodi-0.dtd"
   xmlns:inkscape="http://www.inkscape.org/namespaces/inkscape"
   viewBox="0 0 30.8125 30.8125"
   id="btn-pessoa-caindo"
   version="1.1"
   inkscape:version="0.48.4 r9939"
   sodipodi:docname="New document 2">
  <defs
     id="defs7714" />
  <sodipodi:namedview
     id="base"
     pagecolor="#ffffff"
     bordercolor="#666666"
     borderopacity="1.0"
     inkscape:pageopacity="0.0"
     inkscape:pageshadow="2"
     inkscape:zoom="0.35"
     inkscape:cx="15.40625"
     inkscape:cy="15.406247"
     inkscape:document-units="px"
     inkscape:current-layer="layer1"
     showgrid="false"
     fit-margin-top="0"
     fit-margin-left="0"
     fit-margin-right="0"
     fit-margin-bottom="0"
     inkscape:window-width="453"
     inkscape:window-height="386"
     inkscape:window-x="455"
     inkscape:window-y="178"
     inkscape:window-maximized="0" />
  <metadata
     id="metadata7717">
    <rdf:RDF>
      <cc:Work
         rdf:about="">
        <dc:format>image/svg+xml</dc:format>
        <dc:type
           rdf:resource="http://purl.org/dc/dcmitype/StillImage" />
        <dc:title></dc:title>
      </cc:Work>
    </rdf:RDF>
  </metadata>
  <g
     inkscape:label="Layer 1"
     inkscape:groupmode="layer"
     id="layer1"
     transform="translate(-359.59375,-516.95593)">
    <path
       inkscape:connector-curvature="0"
       style="fill:#ffffff;fill-opacity:1;fill-rule:nonzero;stroke:none"
       id="path18030"
       d="m 390.40625,532.36218 c 0,8.50875 -6.89625,15.40625 -15.40625,15.40625 -8.50875,0 -15.40625,-6.8975 -15.40625,-15.40625 0,-8.50875 6.8975,-15.40625 15.40625,-15.40625 8.51,0 15.40625,6.8975 15.40625,15.40625" />
    <path
       inkscape:connector-curvature="0"
       style="fill:#6f6f6f;fill-opacity:1;fill-rule:nonzero;stroke:none"
       id="path18078"
       d="m 386.89612,532.36218 c 0,6.57 -5.32624,11.89625 -11.89625,11.89625 -6.57,0 -11.89624,-5.32625 -11.89624,-11.89625 0,-6.57 5.32624,-11.89625 11.89624,-11.89625 6.57001,0 11.89625,5.32625 11.89625,11.89625" />
    <path
       inkscape:connector-curvature="0"
       style="fill:#ffffff;stroke:none"
       id="rect46350"
       d="m 376.90625,525.36218 c -0.0611,-0.0378 -0.5,0.34614 -0.5,0.4375 0,0.0263 -0.0829,0.18026 -0.1875,0.34375 -0.20985,0.32805 -0.2692,0.48845 -0.40625,1.09375 -0.0753,0.3326 -0.13132,0.40625 -0.21875,0.40625 -0.2225,0 -0.32016,0.15869 -0.46875,0.625 -0.10194,0.3199 -0.19031,0.47166 -0.28125,0.53125 -0.21051,0.13793 -0.88477,0.39153 -1.1875,0.4375 -0.20204,0.0307 -0.28795,0.0783 -0.375,0.1875 -0.0658,0.0826 -0.18509,0.15625 -0.25,0.15625 -0.0649,0 -0.14884,0.0159 -0.1875,0.0625 -0.19866,0.23937 -0.33214,-0.0986 -0.15625,-0.40625 0.11552,-0.20208 0.12153,-0.32144 -0.0312,-0.46875 -0.0738,-0.0711 -0.16751,-0.19584 -0.1875,-0.28125 -0.0261,-0.11174 -0.0656,-0.15563 -0.15625,-0.15625 -0.18916,-10e-4 -0.2579,-0.0769 -0.375,-0.375 l -0.0937,-0.25 -0.40625,-0.0312 c -0.21539,-0.007 -0.40644,0.009 -0.4375,0.0312 -0.0311,0.022 -0.12557,0.052 -0.21875,0.0625 -0.12738,0.0144 -0.15625,0.0373 -0.15625,0.125 0,0.0641 -0.0704,0.164 -0.125,0.21875 -0.15886,0.15943 -0.20883,0.33833 -0.28125,0.71875 -0.067,0.35203 -0.0707,0.35559 0.0625,0.40625 0.1013,0.0385 0.125,0.0905 0.125,0.21875 0,0.12554 0.0818,0.21181 0.25,0.375 0.12588,0.12216 0.24407,0.23472 0.28125,0.25 0.045,0.0185 0.0166,0.0877 -0.0625,0.15625 -0.0654,0.0566 -0.13719,0.13315 -0.15625,0.1875 -0.0223,0.0635 -0.0821,0.0937 -0.1875,0.0937 -0.0903,0 -0.24967,0.0495 -0.375,0.0937 -0.12533,0.0442 -0.26388,0.0486 -0.28125,0.0312 -0.0174,-0.0174 -0.0753,0.0408 -0.15625,0.0937 -0.22407,0.14681 -0.3374,0.0133 -0.6875,-0.75 -0.16934,-0.36923 -0.35991,-0.6988 -0.40625,-0.75 -0.16999,-0.18784 -0.23946,-0.53126 -0.25,-1 -0.0116,-0.51816 0.0377,-0.62727 0.28125,-0.65625 0.0807,-0.01 0.14529,-0.0603 0.15625,-0.0937 0.0293,-0.0895 -0.23136,-0.15843 -0.40625,-0.125 -0.0833,0.0159 -0.125,0.0166 -0.125,0 0,-0.11731 0.0731,-0.21875 0.1875,-0.21875 0.10336,0 0.125,-0.0257 0.125,-0.125 0,-0.18324 -0.0802,-0.28066 -0.3125,-0.28125 -0.15617,-4e-4 -0.25002,0.0441 -0.375,0.1875 -0.10556,0.12109 -0.15173,0.13681 -0.125,0.0625 0.14033,-0.39006 0.0648,-0.48748 -0.1875,-0.21875 -0.1165,0.12411 -0.1559,0.21086 -0.15625,0.53125 -4.9e-4,0.44529 -0.0307,0.51593 -0.21875,0.46875 -0.0757,-0.019 -0.20292,-0.0197 -0.28125,0 -0.12146,0.0305 -0.14466,0.0611 -0.0937,0.15625 0.039,0.0728 0.14012,0.125 0.25,0.125 0.12686,0 0.21493,0.0503 0.40625,0.25 0.2995,0.31257 0.38584,0.59393 0.34375,1.0625 -0.0165,0.18307 0.005,0.38763 0.0312,0.4375 0.25437,0.48239 0.4375,1.13611 0.4375,1.53125 0,0.2759 0.0528,0.35388 0.34375,0.40625 0.11332,0.0204 0.2677,0.0964 0.34375,0.15625 0.0761,0.0598 0.2695,0.13507 0.40625,0.1875 0.25471,0.0977 0.37291,0.12094 1.15625,0.1875 0.29752,0.0253 0.49484,0.0798 0.625,0.15625 0.2548,0.14963 0.73695,0.71602 0.78125,0.9375 0.0189,0.0944 0.0978,0.26162 0.1875,0.375 0.0897,0.11337 0.22985,0.36062 0.3125,0.5625 0.18539,0.45284 0.1972,0.50992 0.40625,1 0.0927,0.21741 0.21106,0.49281 0.25,0.59375 0.0851,0.22061 0.13588,0.21497 0.40625,0.0312 0.26564,-0.18051 0.30304,-0.1723 0.34375,0.0312 0.0388,0.19382 0.39713,0.56967 0.625,0.6875 0.3112,0.16093 0.92544,0.0879 1.4375,-0.1875 0.63662,-0.34247 1.06441,-0.51875 1.53125,-0.65625 0.59413,-0.175 0.86897,-0.17802 1.03125,-0.0312 0.17866,0.16157 0.3125,0.49452 0.3125,0.71875 0,0.18511 0.13638,0.375 0.25,0.375 0.0284,0 0.0777,0.0866 0.125,0.1875 0.0473,0.10094 0.23966,0.36885 0.40625,0.625 0.18304,0.28144 0.32099,0.57641 0.34375,0.71875 0.0207,0.12954 0.072,0.27374 0.125,0.3125 0.0674,0.0493 0.37055,0.0601 1.03125,0.0625 0.89865,0.003 0.95419,-0.005 1.09375,-0.125 0.12446,-0.10707 0.14041,-0.15852 0.0937,-0.28125 -0.0577,-0.15181 -0.62426,-0.42064 -1.25,-0.625 -0.33408,-0.10911 -0.3975,-0.23993 -0.46875,-0.71875 -0.0451,-0.30283 -0.25553,-0.91928 -0.375,-1.15625 -0.047,-0.0932 -0.17434,-0.42385 -0.28125,-0.71875 -0.27582,-0.76081 -0.3562,-0.8835 -0.8125,-1.125 -0.21529,-0.11395 -1.12452,-0.28125 -1.53125,-0.28125 -0.11735,0 -0.2026,-0.005 -0.21875,-0.0312 -0.0372,-0.0601 0.17608,-0.30287 0.8125,-0.8125 0.55324,-0.44302 0.51598,-0.41749 1.3125,-0.5 0.31059,-0.0322 0.69498,-0.10543 0.84375,-0.15625 0.27009,-0.0923 0.34271,-0.0883 0.8125,0.0312 0.2748,0.0699 0.5262,0.0566 0.625,-0.0625 0.0352,-0.0424 0.0829,-0.31984 0.0937,-0.59375 0.0109,-0.27392 0.0763,-0.72047 0.125,-1 0.15392,-0.88427 0.10113,-1.15625 -0.21875,-1.15625 -0.17988,0 -0.17834,-0.0122 -0.8125,1.1875 -0.22762,0.4306 -0.26822,0.45236 -0.59375,0.25 -0.30761,-0.19122 -0.67557,-0.23545 -0.84375,-0.0937 -0.0662,0.0557 -0.13552,0.0423 -0.28125,0 -0.1068,-0.031 -0.43941,-0.0759 -0.75,-0.0937 -0.53036,-0.0305 -0.58401,9.5e-4 -0.75,0.125 -1.13024,0.84469 -1.38645,1.0541 -1.71875,1.53125 -0.2291,0.32897 -0.33756,0.4375 -0.46875,0.4375 -0.10329,0 -0.21875,-0.27098 -0.21875,-0.5 0,-0.1352 -0.0779,-0.32406 -0.21875,-0.5 -0.0505,-0.0631 -0.0547,-0.15628 -0.0312,-0.28125 0.0271,-0.14435 0.0235,-0.20319 -0.0625,-0.3125 -0.0626,-0.0796 -0.125,-0.2206 -0.125,-0.28125 0,-0.24285 0.60799,-0.96875 0.8125,-0.96875 0.2088,0 0.34967,-0.12667 0.3125,-0.3125 -0.0407,-0.20332 0.10329,-0.55727 0.3125,-0.75 0.25722,-0.23695 0.29986,-0.7352 0.0937,-0.90625 -0.10062,-0.0835 -0.0997,-0.35532 0,-0.59375 0.086,-0.20574 0.49731,-0.54938 0.78125,-0.6875 0.24401,-0.1187 0.19755,-0.20636 -0.0937,-0.1875 -0.12865,0.008 -0.25,-0.005 -0.25,-0.0312 0,-0.0625 0.21414,-0.26081 0.375,-0.34375 0.0699,-0.036 0.125,-0.095 0.125,-0.125 0,-0.0731 -0.20218,-0.0757 -0.34375,0 -0.0627,0.0336 -0.10912,0.0471 -0.125,0.0312 -0.0159,-0.0159 0.0603,-0.0913 0.1875,-0.15625 0.27335,-0.13945 0.29808,-0.21875 0.0625,-0.21875 -0.14197,0 -0.15625,-0.0408 -0.15625,-0.15625 0,-0.0758 -0.0286,-0.13532 -0.0625,-0.15625 z" />
    <path
       inkscape:connector-curvature="0"
       style="opacity:0.19999701;fill:#ffffff;fill-opacity:1;fill-rule:nonzero;stroke:none"
       id="path18386"
       d="m 363.0815,532.32743 c 0,6.57 5.32625,11.895 11.89625,11.895 2.3925,0 4.62125,-0.70875 6.4875,-1.92625 -15.7175,-1.625 -18.38375,-9.96875 -18.38375,-9.96875" />
    <path
       inkscape:connector-curvature="0"
       style="opacity:0.19999701;fill:#ffffff;fill-opacity:1;fill-rule:nonzero;stroke:none"
       id="path18398"
       d="m 386.85588,532.32743 c 0,0 -2.66751,8.34375 -18.38376,9.96875 1.86625,1.2175 4.09375,1.92625 6.48751,1.92625 6.56999,0 11.89625,-5.325 11.89625,-11.895" />
  </g>
</svg>
