<?xml version="1.0" encoding="UTF-8" standalone="no"?>
<!-- Created with Inkscape (http://www.inkscape.org/) -->

<svg
   xmlns:dc="http://purl.org/dc/elements/1.1/"
   xmlns:cc="http://creativecommons.org/ns#"
   xmlns:rdf="http://www.w3.org/1999/02/22-rdf-syntax-ns#"
   xmlns:svg="http://www.w3.org/2000/svg"
   xmlns="http://www.w3.org/2000/svg"
   xmlns:sodipodi="http://sodipodi.sourceforge.net/DTD/sodipodi-0.dtd"
   xmlns:inkscape="http://www.inkscape.org/namespaces/inkscape"
   viewBox="0 0 90.266251 90.267502"
   id="btn-maleta"
   version="1.1"
   inkscape:version="0.48.4 r9939"
   sodipodi:docname="New document 2">
  <defs
     id="defs3065" />
  <sodipodi:namedview
     id="base"
     pagecolor="#ffffff"
     bordercolor="#666666"
     borderopacity="1.0"
     inkscape:pageopacity="0.0"
     inkscape:pageshadow="2"
     inkscape:zoom="0.35"
     inkscape:cx="45.13313"
     inkscape:cy="45.133747"
     inkscape:document-units="px"
     inkscape:current-layer="layer1"
     showgrid="false"
     fit-margin-top="0"
     fit-margin-left="0"
     fit-margin-right="0"
     fit-margin-bottom="0"
     inkscape:window-width="453"
     inkscape:window-height="386"
     inkscape:window-x="455"
     inkscape:window-y="178"
     inkscape:window-maximized="0" />
  <metadata
     id="metadata3068">
    <rdf:RDF>
      <cc:Work
         rdf:about="">
        <dc:format>image/svg+xml</dc:format>
        <dc:type
           rdf:resource="http://purl.org/dc/dcmitype/StillImage" />
        <dc:title></dc:title>
      </cc:Work>
    </rdf:RDF>
  </metadata>
  <g
     inkscape:label="Layer 1"
     inkscape:groupmode="layer"
     id="layer1"
     transform="translate(-329.86687,-487.22843)">
    <path
       inkscape:connector-curvature="0"
       d="m 420.13312,532.36218 c 0,24.92625 -20.20375,45.13375 -45.13249,45.13375 -24.92626,0 -45.13376,-20.2075 -45.13376,-45.13375 0,-24.92625 20.2075,-45.13375 45.13376,-45.13375 24.92874,0 45.13249,20.2075 45.13249,45.13375"
       id="path5562"
       style="fill:#ffffff;fill-opacity:1;fill-rule:nonzero;stroke:none" />
    <path
       inkscape:connector-curvature="0"
       d="m 409.85113,532.36218 c 0,19.24625 -15.60251,34.85 -34.85126,34.85 -19.245,0 -34.84875,-15.60375 -34.84875,-34.85 0,-19.24625 15.60375,-34.84875 34.84875,-34.84875 19.24875,0 34.85126,15.6025 34.85126,34.84875"
       id="path5566"
       style="fill:#c33b3e;fill-opacity:1;fill-rule:nonzero;stroke:none" />
    <path
       inkscape:connector-curvature="0"
       d="m 386.952,534.30856 -2.55,0 0,-2.3375 -21.68,0 0,2.3375 -2.55125,0 0,-2.3375 -6.375,0 0,10.84 c 0,2.8175 2.28251,5.10125 5.10125,5.10125 l 29.75625,0 c 2.8175,0 5.10251,-2.28375 5.10251,-5.10125 l 0,-10.84 -6.80376,0 0,2.3375 z"
       id="path5570"
       style="fill:#ffffff;fill-opacity:1;fill-rule:nonzero;stroke:none" />
    <path
       inkscape:connector-curvature="0"
       d="m 388.65362,520.70631 -6.935,0 c -0.007,0.0325 -0.009,0.0662 -0.0175,0.1 l -1.2575,0 c 0,-0.0338 -0.004,-0.0675 -0.006,-0.1 l -13.325,0 c -0.003,0.0325 -0.005,0.0662 -0.005,0.1 l -1.25874,0 c -0.009,-0.0338 -0.0113,-0.0675 -0.0187,-0.1 l -6.93375,0 c -2.81875,0 -5.10125,2.2825 -5.10125,5.10125 l 0,3.82625 6.37625,0 2.55125,0 21.68,0 2.55,0 6.80375,0 0,-3.82625 c 0,-2.81875 -2.285,-5.10125 -5.1025,-5.10125"
       id="path5574"
       style="fill:#ffffff;fill-opacity:1;fill-rule:nonzero;stroke:none" />
    <path
       inkscape:connector-curvature="0"
       d="m 373.77562,515.27781 c 3.64125,0 6.59501,2.4225 6.66125,5.42875 l 1.28125,0 c 0.0825,-0.38125 0.13375,-0.77375 0.13375,-1.175 0,-3.69875 -3.6175,-6.69625 -8.07625,-6.69625 -4.46125,0 -8.07875,2.9975 -8.07875,6.69625 0,0.40125 0.05,0.79375 0.13375,1.175 l 1.28125,0 c 0.0663,-3.00625 3.02125,-5.42875 6.66375,-5.42875"
       id="path5578"
       style="fill:#ffffff;fill-opacity:1;fill-rule:nonzero;stroke:none" />
    <path
       inkscape:connector-curvature="0"
       d="m 380.44312,520.80643 1.2575,0 c 0.01,-0.0338 0.0113,-0.0675 0.0188,-0.1 l -1.2825,0 c 0.002,0.0325 0.006,0.0662 0.006,0.1"
       id="path5582"
       style="fill:#ffffff;fill-opacity:1;fill-rule:nonzero;stroke:none" />
    <path
       inkscape:connector-curvature="0"
       d="m 367.10701,520.80643 c 0,-0.0338 0.003,-0.0675 0.005,-0.1 l -1.28125,0 c 0.006,0.0325 0.009,0.0662 0.0175,0.1 l 1.25876,0 z"
       id="path5586"
       style="fill:#ffffff;fill-opacity:1;fill-rule:nonzero;stroke:none" />
    <path
       d="m 340.177,532.98044 c 0,19.245 15.6025,34.85 34.84875,34.85 7.015,0 13.54,-2.08 19.005,-5.645 -46.0425,-4.75875 -53.85375,-29.205 -53.85375,-29.205"
       id="path5618"
       style="opacity:0.19999701;fill:#ffffff;fill-opacity:1;fill-rule:nonzero;stroke:none"
       inkscape:connector-curvature="0" />
    <path
       d="m 409.82551,532.98044 c 0,0 -7.81126,24.44625 -53.85626,29.205 5.46875,3.565 11.99375,5.645 19.0075,5.645 19.24625,0 34.84876,-15.605 34.84876,-34.85"
       id="path5630"
       style="opacity:0.19999701;fill:#ffffff;fill-opacity:1;fill-rule:nonzero;stroke:none"
       inkscape:connector-curvature="0" />
  </g>
</svg>
