<?xml version="1.0" encoding="UTF-8" standalone="no"?>
<!-- Created with Inkscape (http://www.inkscape.org/) -->

<svg
   xmlns:dc="http://purl.org/dc/elements/1.1/"
   xmlns:cc="http://creativecommons.org/ns#"
   xmlns:rdf="http://www.w3.org/1999/02/22-rdf-syntax-ns#"
   xmlns:svg="http://www.w3.org/2000/svg"
   xmlns="http://www.w3.org/2000/svg"
   xmlns:sodipodi="http://sodipodi.sourceforge.net/DTD/sodipodi-0.dtd"
   xmlns:inkscape="http://www.inkscape.org/namespaces/inkscape"
   viewBox="0 0 30.811874 30.813126"
   id="btn-cabeca-garganta"
   version="1.1"
   inkscape:version="0.48.4 r9939"
   sodipodi:docname="New document 2">
  <defs
     id="defs3013" />
  <sodipodi:namedview
     id="base"
     pagecolor="#ffffff"
     bordercolor="#666666"
     borderopacity="1.0"
     inkscape:pageopacity="0.0"
     inkscape:pageshadow="2"
     inkscape:zoom="0.35"
     inkscape:cx="15.405938"
     inkscape:cy="15.406565"
     inkscape:document-units="px"
     inkscape:current-layer="layer1"
     showgrid="false"
     fit-margin-top="0"
     fit-margin-left="0"
     fit-margin-right="0"
     fit-margin-bottom="0"
     inkscape:window-width="453"
     inkscape:window-height="386"
     inkscape:window-x="455"
     inkscape:window-y="178"
     inkscape:window-maximized="0" />
  <metadata
     id="metadata3016">
    <rdf:RDF>
      <cc:Work
         rdf:about="">
        <dc:format>image/svg+xml</dc:format>
        <dc:type
           rdf:resource="http://purl.org/dc/dcmitype/StillImage" />
        <dc:title></dc:title>
      </cc:Work>
    </rdf:RDF>
  </metadata>
  <g
     inkscape:label="Layer 1"
     inkscape:groupmode="layer"
     id="layer1"
     transform="translate(-359.59406,-516.95562)">
    <path
       inkscape:connector-curvature="0"
       style="fill:#ffffff;fill-opacity:1;fill-rule:nonzero;stroke:none"
       id="path18050"
       d="m 364.10625,543.25656 c -6.01625,-6.0175 -6.01625,-15.77125 0,-21.78875 6.01625,-6.01625 15.77125,-6.01625 21.7875,0 6.01625,6.0175 6.01625,15.77125 0,21.78875 -6.01625,6.01625 -15.77125,6.01625 -21.7875,0" />
    <path
       inkscape:connector-curvature="0"
       style="fill:#90c84c;fill-opacity:1;fill-rule:nonzero;stroke:none"
       id="path18074"
       d="m 386.46825,532.36243 c 0,6.56875 -5.32625,11.89625 -11.89625,11.89625 -6.57,0 -11.89625,-5.3275 -11.89625,-11.89625 0,-6.56875 5.32625,-11.89625 11.89625,-11.89625 6.57,0 11.89625,5.3275 11.89625,11.89625" />
    <path
       inkscape:connector-curvature="0"
       style="opacity:0.19999701;fill:#ffffff;fill-opacity:1;fill-rule:nonzero;stroke:none"
       id="path18342"
       d="m 362.68413,532.32518 c 0,6.56875 5.32625,11.89625 11.89625,11.89625 2.39499,0 4.62124,-0.71 6.48749,-1.92625 -15.71749,-1.625 -18.38374,-9.97 -18.38374,-9.97" />
    <path
       inkscape:connector-curvature="0"
       style="opacity:0.19999701;fill:#ffffff;fill-opacity:1;fill-rule:nonzero;stroke:none"
       id="path18354"
       d="m 386.45912,532.32518 c 0,0 -2.66624,8.345 -18.38374,9.97 1.8675,1.21625 4.09374,1.92625 6.48749,1.92625 6.57,0 11.89625,-5.3275 11.89625,-11.89625" />
    <path
       style="fill:#ffffff"
       d="m 375.47223,541.14897 c 0.0548,-0.0293 0.0688,-0.11322 0.10658,-0.63825 l 0.0194,-0.26856 0.15165,-0.0367 c 0.27767,-0.0672 0.42696,-0.12305 0.44355,-0.16629 0.009,-0.0236 0.0467,-0.0428 0.0838,-0.0428 0.11133,-2e-5 0.41206,-0.15965 0.5707,-0.30289 0.17043,-0.15391 0.28565,-0.35095 0.33882,-0.57942 0.0569,-0.2444 0.0263,-0.46752 -0.12419,-0.90489 -0.0168,-0.0488 -0.0372,-0.1285 -0.0455,-0.17725 -0.008,-0.0488 -0.0315,-0.10855 -0.0517,-0.13292 -0.0202,-0.0244 -0.0462,-0.0842 -0.0577,-0.13294 -0.0115,-0.0488 -0.045,-0.11521 -0.0744,-0.1477 -0.088,-0.0971 -0.0934,-0.16955 -0.0196,-0.25997 l 0.0674,-0.0827 0.17495,0.0659 c 0.17035,0.0641 0.2556,0.0898 0.83962,0.25276 0.25722,0.0718 0.33701,0.0793 0.95655,0.0906 l 0.67591,0.0122 0.18816,-0.0955 c 0.10349,-0.0525 0.18822,-0.10349 0.1883,-0.11324 0,-0.01 0.0372,-0.0576 0.0826,-0.10637 0.15314,-0.16455 0.26915,-0.36082 0.31874,-0.53917 l 0.0494,-0.17744 -0.0955,-0.32113 c -0.184,-0.61853 -0.19365,-0.66893 -0.13468,-0.70395 0.1575,-0.0935 0.28159,-0.19923 0.28159,-0.23982 0,-0.0254 -0.0619,-0.13294 -0.13752,-0.23894 -0.0809,-0.1134 -0.12517,-0.2007 -0.10751,-0.21209 0.17419,-0.11227 0.24466,-0.17547 0.24483,-0.21959 0,-0.0289 -0.0392,-0.13052 -0.0872,-0.22583 -0.0968,-0.19171 -0.14613,-0.44706 -0.12671,-0.65558 l 0.0127,-0.13635 0.31508,-0.0926 c 0.17329,-0.0509 0.33406,-0.0926 0.35727,-0.0926 0.0232,0 0.0971,-0.0266 0.16425,-0.059 0.16965,-0.0822 0.2511,-0.23468 0.2511,-0.47029 0,-0.19873 -0.008,-0.21296 -0.47626,-0.85905 -0.10011,-0.1381 -0.27558,-0.38403 -0.38992,-0.54651 -0.11435,-0.16247 -0.26481,-0.37627 -0.33437,-0.4751 l -0.12647,-0.1797 0.11971,-0.20433 0.11971,-0.20434 -0.0362,-0.16247 c -0.0199,-0.0894 -0.0795,-0.30206 -0.1324,-0.47266 -0.1664,-0.53642 -0.2141,-0.7407 -0.27942,-1.1964 -0.0349,-0.24371 -0.0879,-0.59597 -0.11768,-0.78278 l -0.0541,-0.33966 0.11535,-0.19751 c 0.0634,-0.10864 0.1319,-0.21534 0.15212,-0.23711 0.0566,-0.0609 0.26004,-0.31523 0.39905,-0.49876 0.1279,-0.16886 0.1578,-0.29461 0.097,-0.40815 -0.0154,-0.0289 -0.10474,-0.11036 -0.19842,-0.18109 -0.18072,-0.13645 -0.47047,-0.421 -0.59517,-0.58448 -0.083,-0.10882 -0.43486,-0.38199 -0.59627,-0.46291 -0.0569,-0.0285 -0.16007,-0.0977 -0.22933,-0.15385 -0.28706,-0.23251 -0.55599,-0.31706 -0.77057,-0.24225 -0.0982,0.0342 -0.17068,0.002 -0.44761,-0.19874 -0.0933,-0.0677 -0.12494,-0.0738 -0.32495,-0.0637 -0.14107,0.007 -0.26984,0.0336 -0.35448,0.0726 -0.31871,0.14689 -0.4428,0.17222 -0.84192,0.17188 -0.21122,-1.8e-4 -0.50367,-0.0117 -0.64991,-0.0257 l -0.26586,-0.0254 -0.31018,0.13931 -0.31018,0.13932 -0.40035,-0.0324 c -0.66488,-0.0539 -0.81762,-0.0405 -1.5273,0.13323 -0.7037,0.17232 -1.34256,0.47851 -1.79772,0.86163 -0.77021,0.64829 -0.8292,0.70659 -1.26578,1.25086 -0.0472,0.0588 -0.28582,0.45117 -0.34894,0.57377 -0.0489,0.0951 -0.13496,0.32592 -0.23063,0.61913 -0.0967,0.2962 -0.15329,0.84381 -0.11762,1.13732 0.0168,0.1381 0.0839,0.66984 0.1493,1.18164 0.0654,0.5118 0.1323,1.03991 0.14882,1.1736 0.0272,0.21992 0.0622,0.34685 0.27059,0.98288 0.0804,0.24534 0.15611,0.39269 0.46208,0.89941 l 0.24878,0.412 -0.0165,0.19642 c -0.0289,0.34526 -0.14961,0.8588 -0.22529,0.95884 -0.0122,0.0163 -0.0453,0.0894 -0.0733,0.16247 -0.028,0.0731 -0.12146,0.25922 -0.20766,0.41358 -0.0862,0.15435 -0.19318,0.3471 -0.2377,0.42834 -0.0445,0.0813 -0.11144,0.20087 -0.1487,0.26586 -0.11741,0.20483 -0.3392,0.74356 -0.3392,0.82393 0,0.0968 0.0774,0.10282 0.18956,0.0146 0.3458,-0.272 1.12685,-0.14008 1.82866,0.30886 0.0929,0.0594 0.17453,0.10807 0.18135,0.10807 0.0321,0 0.49447,0.34984 0.74997,0.56742 0.15685,0.13356 0.67088,0.62217 1.14228,1.08581 1.21176,1.19179 1.66523,1.58984 2.00837,1.76291 0.18474,0.0932 0.22364,0.10238 0.36499,0.0864 0.087,-0.01 0.18161,-0.0305 0.21023,-0.0458 z m 2.71903,-0.002 c 0.0269,-0.0502 0.0181,-0.0729 -0.0543,-0.14032 -0.0475,-0.0442 -0.15783,-0.12352 -0.24517,-0.17618 -0.0873,-0.0527 -0.38395,-0.23546 -0.65909,-0.4062 -0.27515,-0.17073 -0.52173,-0.31043 -0.54799,-0.31043 -0.0665,0 -0.11862,0.0591 -0.11862,0.13482 0,0.0412 0.0395,0.0899 0.11078,0.13704 0.13703,0.0904 0.45042,0.28557 0.62774,0.39085 0.0731,0.0435 0.25923,0.15797 0.41358,0.25457 0.30017,0.18788 0.41897,0.21696 0.47309,0.11585 z m 1.23438,-0.68456 c 0.0417,-0.0417 0.0471,-0.16059 0.008,-0.18455 -0.0279,-0.0172 -0.51645,-0.19695 -0.72625,-0.26717 -0.065,-0.0218 -0.38403,-0.13128 -0.70899,-0.2434 -0.32495,-0.11214 -0.61407,-0.1987 -0.64249,-0.19237 -0.0691,0.0154 -0.10095,0.14791 -0.0481,0.20048 0.0224,0.0223 0.16704,0.083 0.32139,0.1348 0.15436,0.0518 0.36041,0.12373 0.45789,0.15983 0.0975,0.0361 0.25036,0.0889 0.33973,0.11738 0.0893,0.0285 0.18821,0.0651 0.21968,0.0814 0.0843,0.0438 0.64424,0.22673 0.69756,0.22799 0.0252,4.8e-4 0.0617,-0.0149 0.0813,-0.0344 z m 0.0186,-1.42892 c 0.0587,-0.0587 0.0595,-0.14226 0.002,-0.19004 -0.0555,-0.0461 -1.86809,-0.012 -1.92738,0.0363 -0.0468,0.038 -0.0475,0.11858 -0.002,0.16462 0.0261,0.0261 0.27984,0.0355 0.95797,0.0355 0.79927,0 0.92872,-0.006 0.96895,-0.0464 z m -1.47494,-0.66357 c 0.12998,-0.0154 0.47561,-0.0678 0.76807,-0.11649 0.29245,-0.0488 0.57399,-0.0888 0.62563,-0.0889 0.10326,-4.8e-4 0.18675,-0.0649 0.18675,-0.14426 0,-0.14339 -0.13427,-0.15278 -0.72495,-0.0506 -0.41613,0.0719 -0.94235,0.1515 -1.20473,0.18219 -0.16108,0.0188 -0.26594,0.0996 -0.23569,0.18159 0.031,0.0839 0.0742,0.10033 0.21566,0.0819 0.0731,-0.01 0.23928,-0.0299 0.36926,-0.0453 z"
       id="path16067"
       inkscape:connector-curvature="0"
       sodipodi:nodetypes="sscsscsssssssscssscscsscssssscsscssssssscccsssscsssssssssssscscccssssssssssscssssssssssssssscssssssssccsssssssssscssssssssssssssss" />
  </g>
</svg>
