<?xml version="1.0" encoding="UTF-8" standalone="no"?>
<!-- Created with Inkscape (http://www.inkscape.org/) -->

<svg
   xmlns:dc="http://purl.org/dc/elements/1.1/"
   xmlns:cc="http://creativecommons.org/ns#"
   xmlns:rdf="http://www.w3.org/1999/02/22-rdf-syntax-ns#"
   xmlns:svg="http://www.w3.org/2000/svg"
   xmlns="http://www.w3.org/2000/svg"
   xmlns:xlink="http://www.w3.org/1999/xlink"
   xmlns:sodipodi="http://sodipodi.sourceforge.net/DTD/sodipodi-0.dtd"
   xmlns:inkscape="http://www.inkscape.org/namespaces/inkscape"
   viewBox="0 0 77.755745 77.757599"
   id="btn-stop"
   version="1.1"
   inkscape:version="0.48.4 r9939"
   sodipodi:docname="New document 3">
  <defs
     id="defs4206">
    <linearGradient
       inkscape:collect="always"
       xlink:href="#linearGradient5892"
       id="linearGradient4074"
       gradientUnits="userSpaceOnUse"
       gradientTransform="matrix(54.344159,54.344159,-54.344159,54.344159,11.2552,11.25585)"
       spreadMethod="pad"
       x1="0"
       y1="0"
       x2="1"
       y2="0" />
    <linearGradient
       x1="0"
       y1="0"
       x2="1"
       y2="0"
       id="linearGradient5892"
       gradientUnits="userSpaceOnUse"
       gradientTransform="matrix(43.475327,-43.475327,-43.475327,-43.475327,163.53516,241.75732)"
       spreadMethod="pad">
      <stop
         id="stop5894"
         style="stop-color:#dadad9;stop-opacity:1"
         offset="0" />
      <stop
         id="stop5896"
         style="stop-color:#ededed;stop-opacity:1"
         offset="1" />
    </linearGradient>
    <linearGradient
       inkscape:collect="always"
       xlink:href="#linearGradient5924"
       id="linearGradient4069"
       gradientUnits="userSpaceOnUse"
       gradientTransform="matrix(47.18071,47.18071,-47.18071,47.18071,247.11523,759.47895)"
       spreadMethod="pad"
       x1="0"
       y1="0"
       x2="1"
       y2="0" />
    <linearGradient
       x1="0"
       y1="0"
       x2="1"
       y2="0"
       id="linearGradient5924"
       gradientUnits="userSpaceOnUse"
       gradientTransform="matrix(37.744568,-37.744568,-37.744568,-37.744568,166.18262,239.1084)"
       spreadMethod="pad">
      <stop
         id="stop5926"
         style="stop-color:#d7d3ce;stop-opacity:1"
         offset="0" />
      <stop
         id="stop5928"
         style="stop-color:#b5b1ad;stop-opacity:1"
         offset="0.14606699" />
      <stop
         id="stop5930"
         style="stop-color:#b5b1ad;stop-opacity:1"
         offset="0.14606699" />
      <stop
         id="stop5932"
         style="stop-color:#e7e6e6;stop-opacity:1"
         offset="0.52247202" />
      <stop
         id="stop5934"
         style="stop-color:#b5b1ad;stop-opacity:1"
         offset="0.87640399" />
      <stop
         id="stop5936"
         style="stop-color:#dadad9;stop-opacity:1"
         offset="1" />
      <stop
         id="stop5938"
         style="stop-color:#dadad9;stop-opacity:1"
         offset="1" />
    </linearGradient>
    <linearGradient
       inkscape:collect="always"
       xlink:href="#linearGradient5954"
       id="linearGradient4064"
       gradientUnits="userSpaceOnUse"
       gradientTransform="matrix(40.767431,40.767431,-40.767431,40.767431,250.80785,763.16975)"
       spreadMethod="pad"
       x1="0"
       y1="0"
       x2="1"
       y2="0" />
    <linearGradient
       x1="0"
       y1="0"
       x2="1"
       y2="0"
       id="linearGradient5954"
       gradientUnits="userSpaceOnUse"
       gradientTransform="matrix(32.613945,-32.613945,-32.613945,-32.613945,169.13672,236.15576)"
       spreadMethod="pad">
      <stop
         id="stop5956"
         style="stop-color:#d7d3ce;stop-opacity:1"
         offset="0" />
      <stop
         id="stop5958"
         style="stop-color:#b5b1ad;stop-opacity:1"
         offset="0.14606699" />
      <stop
         id="stop5960"
         style="stop-color:#b5b1ad;stop-opacity:1"
         offset="0.14606699" />
      <stop
         id="stop5962"
         style="stop-color:#e7e6e6;stop-opacity:1"
         offset="0.52247202" />
      <stop
         id="stop5964"
         style="stop-color:#b5b1ad;stop-opacity:1"
         offset="0.87640399" />
      <stop
         id="stop5966"
         style="stop-color:#dadad9;stop-opacity:1"
         offset="1" />
      <stop
         id="stop5968"
         style="stop-color:#dadad9;stop-opacity:1"
         offset="1" />
    </linearGradient>
    <mask
       id="mask6004">
      <image
         width="1"
         height="1"
         id="image6006" />
    </mask>
    <linearGradient
       inkscape:collect="always"
       xlink:href="#linearGradient6034"
       id="linearGradient4053"
       gradientUnits="userSpaceOnUse"
       gradientTransform="matrix(33.092112,33.092112,-33.092112,33.092112,254.4309,766.79402)"
       spreadMethod="pad"
       x1="0"
       y1="0"
       x2="1"
       y2="0" />
    <linearGradient
       x1="0"
       y1="0"
       x2="1"
       y2="0"
       id="linearGradient6034"
       gradientUnits="userSpaceOnUse"
       gradientTransform="matrix(26.47369,-26.47369,-26.47369,-26.47369,172.03516,233.25635)"
       spreadMethod="pad">
      <stop
         id="stop6036"
         style="stop-color:#9b9b9c;stop-opacity:1"
         offset="0" />
      <stop
         id="stop6038"
         style="stop-color:#cececd;stop-opacity:1"
         offset="1" />
    </linearGradient>
    <linearGradient
       inkscape:collect="always"
       xlink:href="#linearGradient6066"
       id="linearGradient4048"
       gradientUnits="userSpaceOnUse"
       gradientTransform="matrix(37.565344,37.565344,-37.565344,37.565344,252.5681,764.93123)"
       spreadMethod="pad"
       x1="0"
       y1="0"
       x2="1"
       y2="0" />
    <linearGradient
       x1="0"
       y1="0"
       x2="1"
       y2="0"
       id="linearGradient6066"
       gradientUnits="userSpaceOnUse"
       gradientTransform="matrix(30.052275,-30.052275,-30.052275,-30.052275,170.54492,234.74658)"
       spreadMethod="pad">
      <stop
         id="stop6068"
         style="stop-color:#d7d3ce;stop-opacity:1"
         offset="0" />
      <stop
         id="stop6070"
         style="stop-color:#b5b1ad;stop-opacity:1"
         offset="0.14606699" />
      <stop
         id="stop6072"
         style="stop-color:#b5b1ad;stop-opacity:1"
         offset="0.14606699" />
      <stop
         id="stop6074"
         style="stop-color:#e7e6e6;stop-opacity:1"
         offset="0.52247202" />
      <stop
         id="stop6076"
         style="stop-color:#b5b1ad;stop-opacity:1"
         offset="0.87640399" />
      <stop
         id="stop6078"
         style="stop-color:#dadad9;stop-opacity:1"
         offset="1" />
      <stop
         id="stop6080"
         style="stop-color:#dadad9;stop-opacity:1"
         offset="1" />
    </linearGradient>
    <linearGradient
       y2="0"
       x2="1"
       y1="0"
       x1="0"
       spreadMethod="pad"
       gradientTransform="matrix(54.344159,54.344159,-54.344159,54.344159,243.8059,756.1678)"
       gradientUnits="userSpaceOnUse"
       id="linearGradient4202"
       xlink:href="#linearGradient5892"
       inkscape:collect="always" />
    <linearGradient
       inkscape:collect="always"
       xlink:href="#linearGradient5892"
       id="linearGradient4329"
       gradientUnits="userSpaceOnUse"
       gradientTransform="matrix(54.344159,54.344159,-54.344159,54.344159,243.8059,756.1678)"
       spreadMethod="pad"
       x1="0"
       y1="0"
       x2="1"
       y2="0" />
    <linearGradient
       inkscape:collect="always"
       xlink:href="#linearGradient5924"
       id="linearGradient4331"
       gradientUnits="userSpaceOnUse"
       gradientTransform="matrix(47.18071,47.18071,-47.18071,47.18071,247.11523,759.47895)"
       spreadMethod="pad"
       x1="0"
       y1="0"
       x2="1"
       y2="0" />
    <linearGradient
       inkscape:collect="always"
       xlink:href="#linearGradient5954"
       id="linearGradient4333"
       gradientUnits="userSpaceOnUse"
       gradientTransform="matrix(40.767431,40.767431,-40.767431,40.767431,250.80785,763.16975)"
       spreadMethod="pad"
       x1="0"
       y1="0"
       x2="1"
       y2="0" />
    <linearGradient
       inkscape:collect="always"
       xlink:href="#linearGradient6034"
       id="linearGradient4335"
       gradientUnits="userSpaceOnUse"
       gradientTransform="matrix(33.092112,33.092112,-33.092112,33.092112,254.4309,766.79402)"
       spreadMethod="pad"
       x1="0"
       y1="0"
       x2="1"
       y2="0" />
    <linearGradient
       inkscape:collect="always"
       xlink:href="#linearGradient6066"
       id="linearGradient4337"
       gradientUnits="userSpaceOnUse"
       gradientTransform="matrix(37.565344,37.565344,-37.565344,37.565344,252.5681,764.93123)"
       spreadMethod="pad"
       x1="0"
       y1="0"
       x2="1"
       y2="0" />
  </defs>
  <sodipodi:namedview
     id="base"
     pagecolor="#ffffff"
     bordercolor="#666666"
     borderopacity="1.0"
     inkscape:pageopacity="0.0"
     inkscape:pageshadow="2"
     inkscape:zoom="0.35"
     inkscape:cx="142.4493"
     inkscape:cy="290.30737"
     inkscape:document-units="px"
     inkscape:current-layer="layer1"
     showgrid="false"
     fit-margin-top="0"
     fit-margin-left="0"
     fit-margin-right="0"
     fit-margin-bottom="0"
     inkscape:window-width="453"
     inkscape:window-height="386"
     inkscape:window-x="455"
     inkscape:window-y="178"
     inkscape:window-maximized="0" />
  <metadata
     id="metadata4209">
    <rdf:RDF>
      <cc:Work
         rdf:about="">
        <dc:format>image/svg+xml</dc:format>
        <dc:type
           rdf:resource="http://purl.org/dc/dcmitype/StillImage" />
        <dc:title></dc:title>
      </cc:Work>
    </rdf:RDF>
  </metadata>
  <g
     inkscape:label="Layer 1"
     inkscape:groupmode="layer"
     id="layer1"
     transform="translate(-232.5507,-744.91195)">
    <path
       inkscape:connector-curvature="0"
       style="fill:url(#linearGradient4329);stroke:none"
       id="path5898"
       d="m 232.5507,783.33945 c 0,21.22125 17.205,38.4275 38.42625,38.4275 l 0,0 c 21.22125,0 38.4275,-17.20625 38.4275,-38.4275 l 0,0 c 0,-21.22125 -17.20625,-38.4275 -38.4275,-38.4275 l 0,0 c -21.22125,0 -38.42625,17.20625 -38.42625,38.4275" />
    <path
       d="m 304.01583,783.33945 c 0,18.245 -14.79375,33.0375 -33.03875,33.0375 -18.24375,0 -33.03625,-14.7925 -33.03625,-33.0375 0,-18.24625 14.7925,-33.03625 33.03625,-33.03625 18.245,0 33.03875,14.79 33.03875,33.03625"
       id="path5910"
       style="fill:#ee3338;fill-opacity:1;fill-rule:nonzero;stroke:none"
       inkscape:connector-curvature="0" />
    <path
       inkscape:connector-curvature="0"
       style="fill:url(#linearGradient4331);stroke:none"
       id="path5940"
       d="m 239.59195,783.33945 c 0,17.3325 14.0525,31.38625 31.385,31.38625 l 0,0 c 17.33125,0 31.38625,-14.05375 31.38625,-31.38625 l 0,0 c 0,-17.33125 -14.055,-31.38375 -31.38625,-31.38375 l 0,0 c -17.3325,0 -31.385,14.0525 -31.385,31.38375" />
    <path
       inkscape:connector-curvature="0"
       style="fill:url(#linearGradient4333);stroke:none"
       id="path5970"
       d="m 243.44695,783.33945 c 0,15.20375 12.32625,27.53125 27.53,27.53125 l 0,0 c 15.20625,0 27.52875,-12.3275 27.52875,-27.53125 l 0,0 c 0,-15.20375 -12.3225,-27.53 -27.52875,-27.53 l 0,0 c -15.20375,0 -27.53,12.32625 -27.53,27.53" />
    <image
       style="opacity:0.30000299"
       id="image6020"
       mask="url(#mask6004)"
       transform="matrix(67.200002,0,0,67.200002,243.10644,755.46955)"
       height="1"
       width="1"
    <path
       inkscape:connector-curvature="0"
       style="fill:url(#linearGradient4335);stroke:none"
       id="path6040"
       d="m 247.57695,783.33945 c 0,12.92375 10.47875,23.4 23.4,23.4 l 0,0 c 12.9225,0 23.4,-10.47625 23.4,-23.4 l 0,0 c 0,-12.92375 -10.4775,-23.39875 -23.4,-23.39875 l 0,0 c -12.92125,0 -23.4,10.475 -23.4,23.39875" />
    <path
       d="m 293.7912,783.33945 c 0,12.60125 -10.215,22.81625 -22.81375,22.81625 -12.6025,0 -22.8175,-10.215 -22.8175,-22.81625 0,-12.6 10.215,-22.81375 22.8175,-22.81375 12.59875,0 22.81375,10.21375 22.81375,22.81375"
       id="path6052"
       style="fill:#ee3338;fill-opacity:1;fill-rule:nonzero;stroke:none"
       inkscape:connector-curvature="0" />
    <path
       inkscape:connector-curvature="0"
       style="fill:url(#linearGradient4337);stroke:none"
       id="path6082"
       d="m 249.1257,783.33945 c 0,12.0675 9.78375,21.85 21.85125,21.85 l 0,0 c 12.0675,0 21.85,-9.7825 21.85,-21.85 l 0,0 c 0,-12.06625 -9.7825,-21.85 -21.85,-21.85 l 0,0 c -12.0675,0 -21.85125,9.78375 -21.85125,21.85" />
    <path
       inkscape:connector-curvature="0"
       style="fill:#ee3338;fill-opacity:1;fill-rule:nonzero;stroke:none"
       id="path6092"
       d="m 276.46195,789.82695 -10.96625,0 0,-10.965 10.96625,0 0,10.965 z" />
    <path
       d="m 232.5507,783.33945 c 0,21.22125 17.205,38.4275 38.42625,38.4275 l 0,0 c 21.22125,0 38.4275,-17.20625 38.4275,-38.4275 l 0,0 c 0,-21.22125 -17.20625,-38.4275 -38.4275,-38.4275 l 0,0 c -21.22125,0 -38.42625,17.20625 -38.42625,38.4275"
       id="path4311"
       style="fill:url(#linearGradient4202);stroke:none"
       inkscape:connector-curvature="0" />
    <path
       inkscape:connector-curvature="0"
       style="fill:#ee3338;fill-opacity:1;fill-rule:nonzero;stroke:none"
       id="path4313"
       d="m 304.01583,783.33945 c 0,18.245 -14.79375,33.0375 -33.03875,33.0375 -18.24375,0 -33.03625,-14.7925 -33.03625,-33.0375 0,-18.24625 14.7925,-33.03625 33.03625,-33.03625 18.245,0 33.03875,14.79 33.03875,33.03625" />
    <path
       d="m 239.59195,783.33945 c 0,17.3325 14.0525,31.38625 31.385,31.38625 l 0,0 c 17.33125,0 31.38625,-14.05375 31.38625,-31.38625 l 0,0 c 0,-17.33125 -14.055,-31.38375 -31.38625,-31.38375 l 0,0 c -17.3325,0 -31.385,14.0525 -31.385,31.38375"
       id="path4315"
       style="fill:url(#linearGradient4069);stroke:none"
       inkscape:connector-curvature="0" />
    <path
       d="m 243.44695,783.33945 c 0,15.20375 12.32625,27.53125 27.53,27.53125 l 0,0 c 15.20625,0 27.52875,-12.3275 27.52875,-27.53125 l 0,0 c 0,-15.20375 -12.3225,-27.53 -27.52875,-27.53 l 0,0 c -15.20375,0 -27.53,12.32625 -27.53,27.53"
       id="path4317"
       style="fill:url(#linearGradient4064);stroke:none"
       inkscape:connector-curvature="0" />
    <image
       width="1"
       height="1"
       transform="matrix(67.200002,0,0,67.200002,243.10644,755.46955)"
       mask="url(#mask6004)"
       id="image4319"
       style="opacity:0.30000299" />
    <path
       d="m 247.57695,783.33945 c 0,12.92375 10.47875,23.4 23.4,23.4 l 0,0 c 12.9225,0 23.4,-10.47625 23.4,-23.4 l 0,0 c 0,-12.92375 -10.4775,-23.39875 -23.4,-23.39875 l 0,0 c -12.92125,0 -23.4,10.475 -23.4,23.39875"
       id="path4321"
       style="fill:url(#linearGradient4053);stroke:none"
       inkscape:connector-curvature="0" />
    <path
       inkscape:connector-curvature="0"
       style="fill:#ee3338;fill-opacity:1;fill-rule:nonzero;stroke:none"
       id="path4323"
       d="m 293.7912,783.33945 c 0,12.60125 -10.215,22.81625 -22.81375,22.81625 -12.6025,0 -22.8175,-10.215 -22.8175,-22.81625 0,-12.6 10.215,-22.81375 22.8175,-22.81375 12.59875,0 22.81375,10.21375 22.81375,22.81375" />
    <path
       d="m 249.1257,783.33945 c 0,12.0675 9.78375,21.85 21.85125,21.85 l 0,0 c 12.0675,0 21.85,-9.7825 21.85,-21.85 l 0,0 c 0,-12.06625 -9.7825,-21.85 -21.85,-21.85 l 0,0 c -12.0675,0 -21.85125,9.78375 -21.85125,21.85"
       id="path4325"
       style="fill:url(#linearGradient4048);stroke:none"
       inkscape:connector-curvature="0" />
    <path
       d="m 276.46195,789.82695 -10.96625,0 0,-10.965 10.96625,0 0,10.965 z"
       id="path4327"
       style="fill:#ee3338;fill-opacity:1;fill-rule:nonzero;stroke:none"
       inkscape:connector-curvature="0" />
  </g>
</svg>
