<?xml version="1.0" encoding="UTF-8" standalone="no"?>
<!-- Created with Inkscape (http://www.inkscape.org/) -->

<svg
   xmlns:dc="http://purl.org/dc/elements/1.1/"
   xmlns:cc="http://creativecommons.org/ns#"
   xmlns:rdf="http://www.w3.org/1999/02/22-rdf-syntax-ns#"
   xmlns:svg="http://www.w3.org/2000/svg"
   xmlns="http://www.w3.org/2000/svg"
   xmlns:sodipodi="http://sodipodi.sourceforge.net/DTD/sodipodi-0.dtd"
   xmlns:inkscape="http://www.inkscape.org/namespaces/inkscape"
   viewBox="0 0 73.253754 73.253754"
   id="btn-cinza"
   version="1.1"
   inkscape:version="0.48.4 r9939"
   sodipodi:docname="btn-11.svg">
  <defs
     id="defs27136" />
  <sodipodi:namedview
     id="base"
     pagecolor="#ffffff"
     bordercolor="#666666"
     borderopacity="1.0"
     inkscape:pageopacity="0.0"
     inkscape:pageshadow="2"
     inkscape:zoom="0.35"
     inkscape:cx="-39.8017"
     inkscape:cy="356.62688"
     inkscape:document-units="px"
     inkscape:current-layer="layer1"
     showgrid="false"
     inkscape:window-width="453"
     inkscape:window-height="386"
     inkscape:window-x="455"
     inkscape:window-y="178"
     inkscape:window-maximized="0"
     fit-margin-top="0"
     fit-margin-left="0"
     fit-margin-right="0"
     fit-margin-bottom="0" />
  <metadata
     id="metadata27139">
    <rdf:RDF>
      <cc:Work
         rdf:about="">
        <dc:format>image/svg+xml</dc:format>
        <dc:type
           rdf:resource="http://purl.org/dc/dcmitype/StillImage" />
        <dc:title></dc:title>
      </cc:Work>
    </rdf:RDF>
  </metadata>
  <g
     inkscape:label="Layer 1"
     inkscape:groupmode="layer"
     id="layer1"
     transform="translate(-414.8017,-815.73531)">
    <path
       id="path18030"
       style="fill:#ffffff;fill-opacity:1;fill-rule:nonzero;stroke:none"
       d="m 488.05545,852.36156 c 0,20.22875 -16.39625,36.6275 -36.6275,36.6275 -20.22625,0 -36.62625,-16.39875 -36.62625,-36.6275 0,-20.2275 16.4,-36.62625 36.62625,-36.62625 20.23125,0 36.6275,16.39875 36.6275,36.62625"
       inkscape:connector-curvature="0" />
    <path
       id="path18078"
       style="fill:#6f6f6f;fill-opacity:1;fill-rule:nonzero;stroke:none"
       d="m 479.70945,852.36269 c 0,15.61875 -12.6625,28.28 -28.28125,28.28 -15.61875,0 -28.28125,-12.66125 -28.28125,-28.28 0,-15.61875 12.6625,-28.28125 28.28125,-28.28125 15.61875,0 28.28125,12.6625 28.28125,28.28125"
       inkscape:connector-curvature="0" />
    <path
       id="path20166"
       style="opacity:0.19999701;fill:#ffffff;fill-opacity:1;fill-rule:nonzero;stroke:none"
       d="m 423.09333,852.27857 c 0,15.61875 12.6625,28.28125 28.28,28.28125 5.69125,0 10.9875,-1.68875 15.42375,-4.58125 -37.365,-3.86125 -43.70375,-23.7 -43.70375,-23.7"
       inkscape:connector-curvature="0" />
    <path
       id="path20178"
       style="opacity:0.19999701;fill:#ffffff;fill-opacity:1;fill-rule:nonzero;stroke:none"
       d="m 479.61433,852.27857 c 0,0 -6.34,19.83875 -43.705,23.7 4.4375,2.8925 9.73125,4.58125 15.425,4.58125 15.6175,0 28.28,-12.6625 28.28,-28.28125"
       inkscape:connector-curvature="0" />
  </g>
</svg>
