<?xml version="1.0" encoding="UTF-8" standalone="no"?>
<!-- Created with Inkscape (http://www.inkscape.org/) -->

<svg
   xmlns:dc="http://purl.org/dc/elements/1.1/"
   xmlns:cc="http://creativecommons.org/ns#"
   xmlns:rdf="http://www.w3.org/1999/02/22-rdf-syntax-ns#"
   xmlns:svg="http://www.w3.org/2000/svg"
   xmlns="http://www.w3.org/2000/svg"
   xmlns:sodipodi="http://sodipodi.sourceforge.net/DTD/sodipodi-0.dtd"
   xmlns:inkscape="http://www.inkscape.org/namespaces/inkscape"
   viewBox="0 0 73.252815 73.253754"
   id="btn-laranja"
   version="1.1"
   inkscape:version="0.48.4 r9939"
   sodipodi:docname="New document 2">
  <defs
     id="defs7671" />
  <sodipodi:namedview
     id="base"
     pagecolor="#ffffff"
     bordercolor="#666666"
     borderopacity="1.0"
     inkscape:pageopacity="0.0"
     inkscape:pageshadow="2"
     inkscape:zoom="0.35"
     inkscape:cx="36.626402"
     inkscape:cy="36.626872"
     inkscape:document-units="px"
     inkscape:current-layer="layer1"
     showgrid="false"
     fit-margin-top="0"
     fit-margin-left="0"
     fit-margin-right="0"
     fit-margin-bottom="0"
     inkscape:window-width="453"
     inkscape:window-height="386"
     inkscape:window-x="455"
     inkscape:window-y="178"
     inkscape:window-maximized="0" />
  <metadata
     id="metadata7674">
    <rdf:RDF>
      <cc:Work
         rdf:about="">
        <dc:format>image/svg+xml</dc:format>
        <dc:type
           rdf:resource="http://purl.org/dc/dcmitype/StillImage" />
        <dc:title></dc:title>
      </cc:Work>
    </rdf:RDF>
  </metadata>
  <g
     inkscape:label="Layer 1"
     inkscape:groupmode="layer"
     id="layer1"
     transform="translate(-338.3736,-495.7353)">
    <path
       inkscape:connector-curvature="0"
       style="fill:#ffffff;fill-opacity:1;fill-rule:nonzero;stroke:none"
       id="path18038"
       d="m 400.90141,558.26218 c -14.305,14.3025 -37.49625,14.3025 -51.8,0 -14.30375,-14.305 -14.30375,-37.495 0,-51.8 14.30375,-14.3025 37.495,-14.3025 51.8,0 14.3,14.30375 14.3,37.495 0,51.8" />
    <path
       inkscape:connector-curvature="0"
       style="fill:#fcb248;fill-opacity:1;fill-rule:nonzero;stroke:none"
       id="path18082"
       d="m 403.28178,532.36193 c 0,15.61875 -12.66125,28.28125 -28.28125,28.28125 -15.61875,0 -28.28125,-12.6625 -28.28125,-28.28125 0,-15.61875 12.6625,-28.28125 28.28125,-28.28125 15.62,0 28.28125,12.6625 28.28125,28.28125" />
    <path
       d="m 346.82178,532.85443 c 0,15.61875 12.66125,28.28125 28.28,28.28125 5.6925,0 10.9875,-1.68875 15.425,-4.5825 -37.36625,-3.86 -43.705,-23.69875 -43.705,-23.69875"
       id="path20210"
       style="opacity:0.19999701;fill:#ffffff;fill-opacity:1;fill-rule:nonzero;stroke:none"
       inkscape:connector-curvature="0" />
    <path
       d="m 403.34278,532.85443 c 0,0 -6.34,19.83875 -43.705,23.69875 4.43625,2.89375 9.7325,4.5825 15.42375,4.5825 15.61875,0 28.28125,-12.6625 28.28125,-28.28125"
       id="path20222"
       style="opacity:0.19999701;fill:#ffffff;fill-opacity:1;fill-rule:nonzero;stroke:none"
       inkscape:connector-curvature="0" />
  </g>
</svg>
