<?xml version="1.0" encoding="UTF-8" standalone="no"?>
<!-- Created with Inkscape (http://www.inkscape.org/) -->

<svg
   xmlns:dc="http://purl.org/dc/elements/1.1/"
   xmlns:cc="http://creativecommons.org/ns#"
   xmlns:rdf="http://www.w3.org/1999/02/22-rdf-syntax-ns#"
   xmlns:svg="http://www.w3.org/2000/svg"
   xmlns="http://www.w3.org/2000/svg"
   xmlns:sodipodi="http://sodipodi.sourceforge.net/DTD/sodipodi-0.dtd"
   xmlns:inkscape="http://www.inkscape.org/namespaces/inkscape"
   viewBox="0 0 73.252556 73.25322"
   id="btn-carro"
   version="1.1"
   inkscape:version="0.48.4 r9939"
   sodipodi:docname="New document 2">
  <defs
     id="defs7691" />
  <sodipodi:namedview
     id="base"
     pagecolor="#ffffff"
     bordercolor="#666666"
     borderopacity="1.0"
     inkscape:pageopacity="0.0"
     inkscape:pageshadow="2"
     inkscape:zoom="0.35"
     inkscape:cx="36.626245"
     inkscape:cy="36.626789"
     inkscape:document-units="px"
     inkscape:current-layer="layer1"
     showgrid="false"
     fit-margin-top="0"
     fit-margin-left="0"
     fit-margin-right="0"
     fit-margin-bottom="0"
     inkscape:window-width="453"
     inkscape:window-height="386"
     inkscape:window-x="455"
     inkscape:window-y="178"
     inkscape:window-maximized="0" />
  <metadata
     id="metadata7694">
    <rdf:RDF>
      <cc:Work
         rdf:about="">
        <dc:format>image/svg+xml</dc:format>
        <dc:type
           rdf:resource="http://purl.org/dc/dcmitype/StillImage" />
        <dc:title></dc:title>
      </cc:Work>
    </rdf:RDF>
  </metadata>
  <g
     inkscape:label="Layer 1"
     inkscape:groupmode="layer"
     id="layer1"
     transform="translate(-338.37376,-495.73575)">
    <path
       inkscape:connector-curvature="0"
       style="fill:#ffffff;fill-opacity:1;fill-rule:nonzero;stroke:none"
       id="path18054"
       d="m 349.10063,558.26119 c -14.3025,-14.3025 -14.3025,-37.49375 0,-51.7975 14.30499,-14.30375 37.49374,-14.30375 51.79999,-10e-4 14.30125,14.30375 14.30125,37.49625 -0.002,51.8 -14.3025,14.3025 -37.4925,14.30125 -51.79749,-10e-4" />
    <path
       inkscape:connector-curvature="0"
       style="fill:#2b9651;fill-opacity:1;fill-rule:nonzero;stroke:none"
       id="path18090"
       d="m 403.28163,533.14769 c 0,15.61875 -12.66126,28.28125 -28.28125,28.28125 -15.61875,0 -28.28125,-12.6625 -28.28125,-28.28125 0,-15.62 12.6625,-28.28125 28.28125,-28.28125 15.61999,0 28.28125,12.66125 28.28125,28.28125" />
    <path
       d="m 346.81925,533.43332 c 0,15.61875 12.6625,28.28125 28.28125,28.28125 5.6925,0 10.9875,-1.68875 15.425,-4.58125 -37.36625,-3.86125 -43.70625,-23.7 -43.70625,-23.7"
       id="path19946"
       style="opacity:0.19999701;fill:#ffffff;fill-opacity:1;fill-rule:nonzero;stroke:none"
       inkscape:connector-curvature="0" />
    <path
       d="m 403.34137,533.43332 c 0,0 -6.33875,19.83875 -43.705,23.7 4.4375,2.8925 9.7325,4.58125 15.425,4.58125 15.61875,0 28.28,-12.6625 28.28,-28.28125"
       id="path19958"
       style="opacity:0.19999701;fill:#ffffff;fill-opacity:1;fill-rule:nonzero;stroke:none"
       inkscape:connector-curvature="0" />
    <path
       inkscape:connector-curvature="0"
       style="fill:#ffffff;fill-opacity:1;fill-rule:nonzero;stroke:none"
       id="path23942"
       d="m 358.76012,535.87907 -3.6825,0 c -0.205,0 -0.37374,0.14 -0.37374,0.31375 l 0,1.15 c 0,0.175 0.16874,0.315 0.37374,0.315 l 3.6825,0 c 0.20875,0 0.37625,-0.14 0.37625,-0.315 l 0,-1.15 c 0,-0.17375 -0.1675,-0.31375 -0.37625,-0.31375" />
    <path
       inkscape:connector-curvature="0"
       style="fill:#ffffff;fill-opacity:1;fill-rule:nonzero;stroke:none"
       id="path23946"
       d="m 384.318,534.30982 c -2.52625,0 -4.58,2.055 -4.58,4.58 0,2.525 2.05375,4.5775 4.58,4.5775 2.525,0 4.5775,-2.0525 4.5775,-4.5775 0,-2.525 -2.0525,-4.58 -4.5775,-4.58" />
    <path
       inkscape:connector-curvature="0"
       style="fill:#2b9651;fill-opacity:1;fill-rule:nonzero;stroke:none"
       id="path23950"
       d="m 384.318,540.73682 c -1.01875,0 -1.84875,-0.82875 -1.84875,-1.8475 0,-1.01875 0.83,-1.84875 1.84875,-1.84875 1.0175,0 1.84875,0.83 1.84875,1.84875 0,1.01875 -0.83125,1.8475 -1.84875,1.8475" />
    <path
       inkscape:connector-curvature="0"
       style="fill:#ffffff;fill-opacity:1;fill-rule:nonzero;stroke:none"
       id="path23954"
       d="m 365.35438,534.31044 c -2.52501,0 -4.57875,2.055 -4.57875,4.57875 0,2.525 2.05374,4.57875 4.57875,4.57875 2.52375,0 4.57874,-2.05375 4.57874,-4.57875 0,-2.52375 -2.055,-4.57875 -4.57875,-4.57875" />
    <path
       inkscape:connector-curvature="0"
       style="fill:#2b9651;fill-opacity:1;fill-rule:nonzero;stroke:none"
       id="path23958"
       d="m 365.35438,540.73682 c -1.01875,0 -1.84876,-0.82875 -1.84876,-1.8475 0,-1.01875 0.83,-1.84875 1.84876,-1.84875 1.0175,0 1.84875,0.83 1.84875,1.84875 0,1.01875 -0.83125,1.8475 -1.84875,1.8475" />
    <path
       inkscape:connector-curvature="0"
       style="fill:#d5e4e3;fill-opacity:1;fill-rule:nonzero;stroke:none"
       id="path23962"
       d="m 396.6275,532.40857 c -0.6125,0 -1.11,0.53875 -1.11,1.2025 0,0.665 0.4975,1.2025 1.11,1.2025 0.1625,0 0.315,-0.0388 0.4525,-0.10625 -0.01,-0.81125 -0.065,-1.61625 -0.20875,-2.2675 -0.0775,-0.0188 -0.16,-0.0312 -0.24375,-0.0312" />
    <path
       inkscape:connector-curvature="0"
       style="fill:#ffffff;fill-opacity:1;fill-rule:nonzero;stroke:none"
       id="path23966"
       d="m 395.51787,533.61157 c 0,-0.66375 0.49625,-1.2025 1.11,-1.2025 0.0838,0 0.16625,0.0112 0.24375,0.0312 -0.075,-0.3375 -0.17,-0.635 -0.29625,-0.86875 -0.94,-1.74875 -10.56375,-2.72625 -10.56375,-2.72625 0,0 -5.33375,-6.55 -6.17,-7.03125 -0.8375,-0.48125 -3.51625,-0.68125 -6.2775,-0.68125 -2.7625,0 -6.50625,0.1875 -7.1375,0.81875 -0.6325,0.6325 -5.1625,5.01875 -6.13625,7.09125 -0.14,0.29875 -2.215,0.1875 -3.215,0.1875 -0.99875,0 -1.18625,9.1925 -1.18625,9.1925 -0.0425,0.115 -0.0275,0.24375 0.0425,0.345 0.07,0.1 0.185,0.16 0.3075,0.16 l 3.6575,0 c 0,-0.0125 -0.002,-0.025 -0.002,-0.0388 0,-3.01 2.45,-5.45875 5.46,-5.45875 3.00875,0 5.4575,2.44875 5.4575,5.45875 0,0.0138 -10e-4,0.0263 -10e-4,0.0388 l 8.05,0 c 0,-0.0125 -0.002,-0.025 -0.002,-0.0388 0,-3.01 2.45,-5.45875 5.46,-5.45875 3.00875,0 5.45875,2.44875 5.45875,5.45875 0,0.0138 -0.001,0.0263 -0.001,0.0388 l 6.70875,0 c 0.2075,0 0.375,-0.1675 0.375,-0.37375 0,0 0.24375,-1.93625 0.22125,-3.84625 -0.1375,0.0675 -0.29,0.10625 -0.4525,0.10625 -0.61375,0 -1.11,-0.53875 -1.11,-1.2025" />
    <path
       inkscape:connector-curvature="0"
       style="fill:#2b9651;fill-opacity:1;fill-rule:nonzero;stroke:none"
       id="path23970"
       d="m 372.62725,528.96557 c 0,0.10375 -0.0825,0.1875 -0.18625,0.1875 l -10.0275,0 c -0.0738,0 -0.14125,-0.045 -0.17125,-0.11125 -0.03,-0.0688 -0.0175,-0.1475 0.0325,-0.2025 l 4.96875,-5.97625 c 0.035,-0.0388 0.085,-0.0625 0.13875,-0.0625 l 5.08,-0.006 c 0.10375,0 0.1875,0.0825 0.1875,0.18624 l -0.0225,5.98501 z" />
    <path
       inkscape:connector-curvature="0"
       style="fill:#2b9651;fill-opacity:1;fill-rule:nonzero;stroke:none"
       id="path23974"
       d="m 383.8675,529.04732 c -0.03,0.0638 -0.095,0.105 -0.1675,0.105 l -9.645,0 c -0.10375,0 -0.1875,-0.0838 -0.1875,-0.18625 l -0.07,-5.9625 c 0,-0.10375 0.085,-0.1875 0.1875,-0.1875 l 5.2875,0.0462 c 0.0575,0 0.1125,0.025 0.1475,0.07 l 4.42625,5.91625 c 0.0462,0.0575 0.0525,0.13375 0.0213,0.19875" />
    <path
       inkscape:connector-curvature="0"
       style="fill:#d5e4e3;fill-opacity:1;fill-rule:nonzero;stroke:none"
       id="path23978"
       d="m 396.59088,539.18707 -6.83375,0 c 0.0125,-0.7925 -0.12,-1.53 -0.12,-1.53 l 7.31499,0 c 0,0 -0.015,1.53 -0.36124,1.53" />
  </g>
</svg>
