<?xml version="1.0" encoding="UTF-8" standalone="no"?>
<!-- Created with Inkscape (http://www.inkscape.org/) -->

<svg
   xmlns:dc="http://purl.org/dc/elements/1.1/"
   xmlns:cc="http://creativecommons.org/ns#"
   xmlns:rdf="http://www.w3.org/1999/02/22-rdf-syntax-ns#"
   xmlns:svg="http://www.w3.org/2000/svg"
   xmlns="http://www.w3.org/2000/svg"
   xmlns:sodipodi="http://sodipodi.sourceforge.net/DTD/sodipodi-0.dtd"
   xmlns:inkscape="http://www.inkscape.org/namespaces/inkscape"
   viewBox="0 0 69.926247 69.927498"
   id="btn-verde-claro"
   version="1.1"
   inkscape:version="0.48.4 r9939"
   sodipodi:docname="New document 2">
  <defs
     id="defs3094" />
  <sodipodi:namedview
     id="base"
     pagecolor="#ffffff"
     bordercolor="#666666"
     borderopacity="1.0"
     inkscape:pageopacity="0.0"
     inkscape:pageshadow="2"
     inkscape:zoom="0.35"
     inkscape:cx="181.3917"
     inkscape:cy="0.67803738"
     inkscape:document-units="px"
     inkscape:current-layer="layer1"
     showgrid="false"
     fit-margin-top="0"
     fit-margin-left="0"
     fit-margin-right="0"
     fit-margin-bottom="0"
     inkscape:window-width="453"
     inkscape:window-height="386"
     inkscape:window-x="455"
     inkscape:window-y="178"
     inkscape:window-maximized="0" />
  <metadata
     id="metadata3097">
    <rdf:RDF>
      <cc:Work
         rdf:about="">
        <dc:format>image/svg+xml</dc:format>
        <dc:type
           rdf:resource="http://purl.org/dc/dcmitype/StillImage" />
        <dc:title></dc:title>
      </cc:Work>
    </rdf:RDF>
  </metadata>
  <g
     inkscape:label="Layer 1"
     inkscape:groupmode="layer"
     id="layer1"
     transform="translate(-193.6083,-463.11272)">
    <path
       inkscape:connector-curvature="0"
       style="fill:#ffffff;fill-opacity:1;fill-rule:nonzero;stroke:none"
       id="path7414"
       d="m 263.53455,498.07647 c 0,19.31 -15.65125,34.96375 -34.96375,34.96375 -19.3075,0 -34.9625,-15.65375 -34.9625,-34.96375 0,-19.31 15.655,-34.96375 34.9625,-34.96375 19.3125,0 34.96375,15.65375 34.96375,34.96375" />
    <path
       inkscape:connector-curvature="0"
       style="fill:#90c84b;fill-opacity:1;fill-rule:nonzero;stroke:none"
       id="path7418"
       d="m 255.56942,498.07647 c 0,14.91 -12.0875,26.9975 -26.99875,26.9975 -14.9075,0 -26.995,-12.0875 -26.995,-26.9975 0,-14.91 12.0875,-26.9975 26.995,-26.9975 14.91125,0 26.99875,12.0875 26.99875,26.9975" />
    <path
       inkscape:connector-curvature="0"
       style="opacity:0.19999701;fill:#ffffff;fill-opacity:1;fill-rule:nonzero;stroke:none"
       id="path7450"
       d="m 201.59605,498.55496 c 0,14.90875 12.0875,26.9975 26.9975,26.9975 5.4325,0 10.48625,-1.61125 14.72125,-4.3725 -35.6675,-3.6875 -41.71875,-22.625 -41.71875,-22.625" />
    <path
       inkscape:connector-curvature="0"
       style="opacity:0.19999701;fill:#ffffff;fill-opacity:1;fill-rule:nonzero;stroke:none"
       id="path7462"
       d="m 255.54993,498.55496 c 0,0 -6.05125,18.9375 -41.72125,22.625 4.2375,2.76125 9.2925,4.3725 14.725,4.3725 14.90875,0 26.99625,-12.08875 26.99625,-26.9975" />
  </g>
</svg>
