<?xml version="1.0" encoding="UTF-8" standalone="no"?>
<!-- Created with Inkscape (http://www.inkscape.org/) -->

<svg
   xmlns:dc="http://purl.org/dc/elements/1.1/"
   xmlns:cc="http://creativecommons.org/ns#"
   xmlns:rdf="http://www.w3.org/1999/02/22-rdf-syntax-ns#"
   xmlns:svg="http://www.w3.org/2000/svg"
   xmlns="http://www.w3.org/2000/svg"
   xmlns:sodipodi="http://sodipodi.sourceforge.net/DTD/sodipodi-0.dtd"
   xmlns:inkscape="http://www.inkscape.org/namespaces/inkscape"
   viewBox="0 0 30.812813 30.811874"
   id="btn-cabeca"
   version="1.1"
   inkscape:version="0.48.4 r9939"
   sodipodi:docname="New document 2">
  <defs
     id="defs8210" />
  <sodipodi:namedview
     id="base"
     pagecolor="#ffffff"
     bordercolor="#666666"
     borderopacity="1.0"
     inkscape:pageopacity="0.0"
     inkscape:pageshadow="2"
     inkscape:zoom="0.35"
     inkscape:cx="467.54926"
     inkscape:cy="43.977365"
     inkscape:document-units="px"
     inkscape:current-layer="layer1"
     showgrid="false"
     fit-margin-top="0"
     fit-margin-left="0"
     fit-margin-right="0"
     fit-margin-bottom="0"
     inkscape:window-width="453"
     inkscape:window-height="386"
     inkscape:window-x="455"
     inkscape:window-y="178"
     inkscape:window-maximized="0" />
  <metadata
     id="metadata8213">
    <rdf:RDF>
      <cc:Work
         rdf:about="">
        <dc:format>image/svg+xml</dc:format>
        <dc:type
           rdf:resource="http://purl.org/dc/dcmitype/StillImage" />
        <dc:title></dc:title>
      </cc:Work>
    </rdf:RDF>
  </metadata>
  <g
     inkscape:label="Layer 1"
     inkscape:groupmode="layer"
     id="layer1"
     transform="translate(92.549263,-545.52767)">
    <path
       inkscape:connector-curvature="0"
       style="fill:#ffffff;fill-opacity:1;fill-rule:nonzero;stroke:none"
       id="path18034"
       d="m -66.248638,571.82736 c -6.01625,6.01625 -15.77125,6.01625 -21.7875,0 -6.0175,-6.01625 -6.0175,-15.77125 0,-21.7875 6.01625,-6.01625 15.77125,-6.01625 21.7875,0 6.01625,6.01625 6.01625,15.77125 0,21.7875" />
    <path
       inkscape:connector-curvature="0"
       style="fill:#565656;fill-opacity:1;fill-rule:nonzero;stroke:none"
       id="path18066"
       d="m -65.247138,560.93324 c 0,6.57 -5.32625,11.89625 -11.89625,11.89625 -6.56875,0 -11.895,-5.32625 -11.895,-11.89625 0,-6.57 5.32625,-11.89625 11.895,-11.89625 6.57,0 11.89625,5.32625 11.89625,11.89625" />
    <path
       inkscape:connector-curvature="0"
       style="opacity:0.19999701;fill:#ffffff;fill-opacity:1;fill-rule:nonzero;stroke:none"
       id="path18254"
       d="m -89.030638,561.11386 c 0,6.56875 5.3275,11.89625 11.89625,11.89625 2.39375,0 4.62125,-0.71125 6.48875,-1.9275 -15.7175,-1.62375 -18.385,-9.96875 -18.385,-9.96875" />
    <path
       inkscape:connector-curvature="0"
       style="opacity:0.19999701;fill:#ffffff;fill-opacity:1;fill-rule:nonzero;stroke:none"
       id="path18266"
       d="m -65.255013,561.11386 c 0,0 -2.66625,8.345 -18.38375,9.96875 1.86625,1.21625 4.0925,1.9275 6.4875,1.9275 6.57,0 11.89625,-5.3275 11.89625,-11.89625" />
    <path
       inkscape:connector-curvature="0"
       style="fill:#ffffff;fill-opacity:1;fill-rule:nonzero;stroke:none"
       id="path22238"
       d="m -75.418013,560.48086 c -0.08125,0.009 -0.14875,0.007 -0.215,0.005 -0.11125,-0.003 -0.20625,-0.005 -0.31375,0.0475 -0.14875,0.0725 -0.4675,0.01 -0.66375,-0.0888 -0.075,-0.0388 -0.12375,-0.0263 -0.17625,-0.015 -0.06625,0.015 -0.1425,0.0325 -0.3125,-0.0538 -0.0525,-0.0263 -0.11125,-0.0625 -0.175,-0.10625 -0.0075,-0.004 -0.015,-0.006 -0.0225,-0.002 -0.005,10e-4 -0.48,0.1625 -1.205,-0.2075 -0.04375,-0.0225 -0.08875,-0.0475 -0.1325,-0.0738 -0.0037,-10e-4 -0.0062,-10e-4 -0.01,-0.003 -0.0025,0 -0.3925,-0.0375 -0.615,-0.1525 -0.1175,-0.06 -0.3425,-0.28 -0.56,-0.49375 -0.19125,-0.18625 -0.37125,-0.36375 -0.465,-0.41625 -0.01875,-0.0487 -0.10625,-0.30375 -0.095,-0.515 0.0013,-0.009 -0.005,-0.0175 -0.0125,-0.0225 -0.0025,-0.003 -0.25,-0.12875 -0.37,-0.2575 -0.02125,-0.0225 -0.06375,-0.0525 -0.1225,-0.0937 -0.29,-0.20875 -0.89375,-0.64375 -0.7725,-1.4575 0.02,-0.0362 0.145,-0.28125 0.11125,-0.6 0.0038,-0.03 0.04875,-0.3725 0.41625,-0.5 0.0062,-10e-4 0.01125,-0.006 0.01375,-0.0125 0.0025,-0.005 0.19875,-0.42875 0.73625,-0.64875 0.02875,-10e-4 0.17125,-0.0175 0.29375,-0.1525 0.0013,-10e-4 0.15125,-0.155 0.515,-0.29 0.18,-0.0662 0.28625,-0.06 0.3725,-0.055 0.0925,0.006 0.16625,0.0112 0.2775,-0.075 0.195,-0.15 0.6875,-0.0588 0.87875,0.0388 0.08375,0.0437 0.135,0.015 0.19,-0.0163 0.08625,-0.0488 0.19625,-0.11 0.5375,0.0725 0.0063,0.002 0.01125,0.004 0.01625,0.002 0.0025,0 0.3825,-0.0487 0.66,0.0125 0.0425,0.009 0.0775,0.0225 0.1125,0.04 0.08375,0.0425 0.13375,0.10375 0.1825,0.16375 0.04375,0.055 0.0875,0.105 0.14875,0.1375 0.01125,0.005 0.02125,0.01 0.03375,0.0138 0.05625,0.02 0.11,0.0125 0.16625,0.005 0.09125,-0.0138 0.2075,-0.03 0.4025,0.07 0.07875,0.0412 0.16625,0.0987 0.26,0.17125 0.005,0.003 0.01,0.005 0.015,0.005 0.0012,0 0.14,0.005 0.2875,0.0813 0.1225,0.0625 0.215,0.155 0.27375,0.2725 0.0025,0.004 0.005,0.007 0.01,0.009 0.0025,0.004 0.33625,0.22875 0.48375,0.4125 0.05875,0.0738 0.08875,0.145 0.11875,0.215 0.045,0.10875 0.0875,0.21125 0.22625,0.3075 0.215,0.15 0.28125,0.46625 0.32875,0.75 0.015,0.0937 0.04375,0.17375 0.0775,0.2675 0.06875,0.19 0.15375,0.42625 0.15625,0.91125 0,0.006 0.0038,0.0113 0.0075,0.0163 0.0025,0.002 0.2375,0.2675 0.05,0.97 l -0.02375,0.09 c -0.18375,0.695 -0.3425,1.295 -1.0725,1.58375 -0.01,10e-4 -0.07,0.008 -0.15125,-0.0337 -0.0625,-0.0325 -0.12125,-0.085 -0.1775,-0.15375 -0.04625,-0.0587 -0.10125,-0.1025 -0.1625,-0.135 -0.16125,-0.0838 -0.34625,-0.0625 -0.5075,-0.0425 l -0.02625,0.003 z m 0.64875,3.165 c 0.41,-1.075 2.94,-3.19125 2.4775,-6.04625 -0.23125,-1.14125 -0.0825,-3.52875 -4.03125,-4.15875 -3.94875,-0.63 -7.505,1.3725 -6.61125,5.75125 0,0.7975 -1.57875,2.03625 -1.19875,2.455 0.38125,0.41875 1.0275,0.435 1.0275,0.435 0,0 -0.42125,0.7975 -0.23125,1.01875 0.18875,0.22 0.7125,0.125 0.7125,0.125 0,0 -0.4875,0.3525 -0.4875,0.625 0,0.27375 0.82375,0.63625 0.82375,0.63625 0,0 -0.15125,1.51 1.0875,1.405 1.23625,-0.105 1.44375,-0.45375 1.44375,-0.45375 l 0.39625,4.25875 7.43125,0 c -2.24625,-2.9075 -3.25,-4.975 -2.84,-6.05125" />
  </g>
</svg>
