<?xml version="1.0" encoding="UTF-8" standalone="no"?>
<!-- Created with Inkscape (http://www.inkscape.org/) -->

<svg
   xmlns:dc="http://purl.org/dc/elements/1.1/"
   xmlns:cc="http://creativecommons.org/ns#"
   xmlns:rdf="http://www.w3.org/1999/02/22-rdf-syntax-ns#"
   xmlns:svg="http://www.w3.org/2000/svg"
   xmlns="http://www.w3.org/2000/svg"
   xmlns:sodipodi="http://sodipodi.sourceforge.net/DTD/sodipodi-0.dtd"
   xmlns:inkscape="http://www.inkscape.org/namespaces/inkscape"
   viewBox="0 0 73.253738 73.253754"
   id="btn-laranja-vermelho"
   version="1.1"
   inkscape:version="0.48.4 r9939"
   sodipodi:docname="New document 2">
  <defs
     id="defs7671" />
  <sodipodi:namedview
     id="base"
     pagecolor="#ffffff"
     bordercolor="#666666"
     borderopacity="1.0"
     inkscape:pageopacity="0.0"
     inkscape:pageshadow="2"
     inkscape:zoom="0.35"
     inkscape:cx="36.62687"
     inkscape:cy="36.626877"
     inkscape:document-units="px"
     inkscape:current-layer="layer1"
     showgrid="false"
     fit-margin-top="0"
     fit-margin-left="0"
     fit-margin-right="0"
     fit-margin-bottom="0"
     inkscape:window-width="453"
     inkscape:window-height="386"
     inkscape:window-x="455"
     inkscape:window-y="178"
     inkscape:window-maximized="0" />
  <metadata
     id="metadata7674">
    <rdf:RDF>
      <cc:Work
         rdf:about="">
        <dc:format>image/svg+xml</dc:format>
        <dc:type
           rdf:resource="http://purl.org/dc/dcmitype/StillImage" />
        <dc:title></dc:title>
      </cc:Work>
    </rdf:RDF>
  </metadata>
  <g
     inkscape:label="Layer 1"
     inkscape:groupmode="layer"
     id="layer1"
     transform="translate(-338.37313,-495.73531)">
    <path
       inkscape:connector-curvature="0"
       style="fill:#ffffff;fill-opacity:1;fill-rule:nonzero;stroke:none"
       id="path18046"
       d="m 374.99937,568.98906 c -20.22625,0 -36.62624,-16.39875 -36.62624,-36.62625 0,-20.22875 16.3975,-36.62625 36.62624,-36.6275 20.23001,0 36.6275,16.39875 36.6275,36.6275 0,20.2275 -16.3975,36.62625 -36.6275,36.62625" />
    <path
       inkscape:connector-curvature="0"
       style="fill:#f16439;fill-opacity:1;fill-rule:nonzero;stroke:none"
       id="path18086"
       d="m 403.28188,532.36306 c 0,15.61875 -12.6625,28.28125 -28.28251,28.28125 -15.6175,0 -28.27999,-12.6625 -28.27999,-28.28125 0,-15.61875 12.66249,-28.28125 28.27999,-28.28125 15.62,0 28.28251,12.6625 28.28251,28.28125" />
    <path
       d="m 346.74013,532.36243 c 0,15.61875 12.66124,28.28125 28.27999,28.28125 5.69251,0 10.98751,-1.6875 15.42501,-4.58125 -37.365,-3.86125 -43.705,-23.7 -43.705,-23.7"
       id="path19902"
       style="opacity:0.19999701;fill:#ffffff;fill-opacity:1;fill-rule:nonzero;stroke:none"
       inkscape:connector-curvature="0" />
    <path
       d="m 403.26238,532.36243 c 0,0 -6.34,19.83875 -43.70625,23.7 4.4375,2.89375 9.7325,4.58125 15.425,4.58125 15.61875,0 28.28125,-12.6625 28.28125,-28.28125"
       id="path19914"
       style="opacity:0.19999701;fill:#ffffff;fill-opacity:1;fill-rule:nonzero;stroke:none"
       inkscape:connector-curvature="0" />
  </g>
</svg>
