<?xml version="1.0" encoding="UTF-8" standalone="no"?>
<!-- Created with Inkscape (http://www.inkscape.org/) -->

<svg
   xmlns:dc="http://purl.org/dc/elements/1.1/"
   xmlns:cc="http://creativecommons.org/ns#"
   xmlns:rdf="http://www.w3.org/1999/02/22-rdf-syntax-ns#"
   xmlns:svg="http://www.w3.org/2000/svg"
   xmlns="http://www.w3.org/2000/svg"
   xmlns:sodipodi="http://sodipodi.sourceforge.net/DTD/sodipodi-0.dtd"
   xmlns:inkscape="http://www.inkscape.org/namespaces/inkscape"
   viewBox="0 0 73.253754 73.253754"
   id="btn-fogo"
   version="1.1"
   inkscape:version="0.48.4 r9939"
   sodipodi:docname="New document 2">
  <defs
     id="defs7673" />
  <sodipodi:namedview
     id="base"
     pagecolor="#ffffff"
     bordercolor="#666666"
     borderopacity="1.0"
     inkscape:pageopacity="0.0"
     inkscape:pageshadow="2"
     inkscape:zoom="0.35"
     inkscape:cx="36.62687"
     inkscape:cy="36.626877"
     inkscape:document-units="px"
     inkscape:current-layer="layer1"
     showgrid="false"
     fit-margin-top="0"
     fit-margin-left="0"
     fit-margin-right="0"
     fit-margin-bottom="0"
     inkscape:window-width="453"
     inkscape:window-height="386"
     inkscape:window-x="455"
     inkscape:window-y="178"
     inkscape:window-maximized="0" />
  <metadata
     id="metadata7676">
    <rdf:RDF>
      <cc:Work
         rdf:about="">
        <dc:format>image/svg+xml</dc:format>
        <dc:type
           rdf:resource="http://purl.org/dc/dcmitype/StillImage" />
        <dc:title></dc:title>
      </cc:Work>
    </rdf:RDF>
  </metadata>
  <g
     inkscape:label="Layer 1"
     inkscape:groupmode="layer"
     id="layer1"
     transform="translate(-338.37313,-495.73531)">
    <path
       inkscape:connector-curvature="0"
       style="fill:#ffffff;fill-opacity:1;fill-rule:nonzero;stroke:none"
       id="path18022"
       d="m 411.62688,532.36281 c 0,20.22875 -16.39625,36.62625 -36.62751,36.62625 -20.22625,0 -36.62624,-16.3975 -36.62624,-36.62625 0,-20.22875 16.39999,-36.6275 36.62624,-36.6275 20.23126,0 36.62751,16.39875 36.62751,36.6275" />
    <path
       inkscape:connector-curvature="0"
       style="fill:#c33b3e;fill-opacity:1;fill-rule:nonzero;stroke:none"
       id="path18026"
       d="m 403.28212,532.36281 c 0,15.61875 -12.66249,28.28125 -28.28249,28.28125 -15.6175,0 -28.28001,-12.6625 -28.28001,-28.28125 0,-15.61875 12.66251,-28.28125 28.28001,-28.28125 15.62,0 28.28249,12.6625 28.28249,28.28125" />
    <path
       d="m 346.74038,532.86456 c 0,15.61875 12.66249,28.28125 28.27999,28.28125 5.69376,0 10.98876,-1.6875 15.42375,-4.58125 -37.36499,-3.86125 -43.70374,-23.7 -43.70374,-23.7"
       id="path19990"
       style="opacity:0.19999701;fill:#ffffff;fill-opacity:1;fill-rule:nonzero;stroke:none"
       inkscape:connector-curvature="0" />
    <path
       d="m 403.26138,532.86456 c 0,0 -6.33875,19.83875 -43.705,23.7 4.4375,2.89375 9.7325,4.58125 15.425,4.58125 15.6175,0 28.28,-12.6625 28.28,-28.28125"
       id="path20002"
       style="opacity:0.19999701;fill:#ffffff;fill-opacity:1;fill-rule:nonzero;stroke:none"
       inkscape:connector-curvature="0" />
    <path
       inkscape:connector-curvature="0"
       style="fill:#ffffff;fill-opacity:1;fill-rule:nonzero;stroke:none"
       id="path23938"
       d="m 379.99475,511.38193 c 0,0 -9.90375,6.40625 -1.64,18.8375 0,0 -1.91125,-6.81625 1.64,-9.41875 0,0 -1.22875,3.47625 1.57125,6.345 2.8,2.86875 12.90875,15.64125 1.2975,24.4525 0,0 2.11625,-9.69875 -3.21,-15.64125 0,0 5.26,13.1825 -1.435,16.73375 -6.6925,3.5525 -22.6075,-4.78125 -15.29875,-23.56375 0,0 -1.36625,8.40125 2.52625,11.20125 0,0 -7.9225,-18.9875 14.54875,-28.94625" />
  </g>
</svg>
